<?xml version="1.0" standalone="no"?>
<!DOCTYPE svg PUBLIC "-//W3C//DTD SVG 20010904//EN"
 "http://www.w3.org/TR/2001/REC-SVG-20010904/DTD/svg10.dtd">
<svg version="1.0" xmlns="http://www.w3.org/2000/svg"
 width="884.000000pt" height="884.000000pt" viewBox="0 0 884.000000 884.000000"
 preserveAspectRatio="xMidYMid meet">
<metadata>
Created by potrace 1.11, written by Peter Selinger 2001-2013
</metadata>
<g transform="translate(0.000000,884.000000) scale(0.100000,-0.100000)"
fill="#000000" stroke="none">
<path d="M4400 8223 c-8 -15 -19 -34 -25 -42 -10 -13 -54 -90 -94 -163 -12
-20 -75 -130 -142 -245 -115 -197 -140 -240 -185 -323 -10 -19 -21 -37 -24
-40 -3 -3 -16 -25 -29 -50 -13 -25 -30 -52 -37 -61 -8 -8 -14 -19 -14 -23 0
-4 -38 -72 -85 -152 -47 -80 -85 -149 -85 -154 0 -6 -4 -10 -10 -10 -5 0 -10
-4 -10 -9 0 -7 -64 -122 -100 -181 -9 -13 -33 -55 -90 -155 -9 -16 -29 -50
-44 -75 -14 -25 -40 -70 -56 -100 -17 -30 -35 -62 -40 -70 -27 -41 -210 -364
-210 -371 0 -5 -4 -9 -10 -9 -5 0 -10 -6 -10 -13 0 -7 -16 -36 -35 -65 -20
-28 -32 -52 -29 -52 4 0 0 -8 -8 -17 -8 -10 -57 -92 -109 -183 -51 -91 -97
-166 -101 -168 -5 -2 -8 -8 -8 -12 0 -7 -110 -204 -151 -270 -11 -17 -131
-226 -164 -285 -13 -22 -47 -80 -75 -130 -29 -49 -65 -112 -81 -140 -15 -27
-43 -77 -63 -109 -20 -33 -38 -68 -42 -78 -3 -10 -10 -18 -15 -18 -5 0 -9 -4
-9 -9 0 -8 -68 -130 -137 -246 -16 -27 -32 -57 -36 -65 -4 -8 -15 -28 -26 -45
-28 -46 -63 -107 -79 -140 -9 -16 -18 -32 -22 -35 -3 -3 -21 -32 -40 -65 -18
-33 -41 -73 -50 -90 -46 -79 -92 -159 -145 -250 -32 -55 -63 -109 -69 -120 -9
-16 -210 -364 -246 -425 -20 -33 -114 -197 -133 -230 -10 -19 -71 -124 -134
-233 -63 -110 -122 -213 -132 -230 -10 -18 -48 -83 -85 -146 -36 -62 -66 -115
-66 -116 0 -2 -21 -39 -46 -82 -26 -43 -55 -92 -64 -109 -72 -126 -116 -199
-122 -202 -5 -2 -8 -8 -8 -13 0 -8 -69 -130 -262 -462 -37 -65 -68 -122 -68
-127 0 -6 -3 -10 -7 -10 -5 0 -13 -10 -19 -23 -27 -56 -78 -142 -86 -145 -4
-2 -8 -8 -8 -13 0 -6 -25 -52 -55 -104 -30 -51 -55 -98 -55 -103 0 -6 11 -9
25 -7 14 1 28 -2 31 -7 3 -4 10 -5 16 -2 16 10 218 11 218 1 0 -5 5 -5 11 -1
16 9 149 11 149 1 0 -5 5 -5 11 -1 16 9 149 11 149 1 0 -5 4 -6 9 -2 17 10 71
13 71 3 0 -5 6 -6 13 -1 15 9 111 11 155 2 17 -4 32 -4 32 0 0 3 45 6 100 6
55 0 100 -4 100 -8 0 -5 4 -6 9 -2 17 10 71 13 71 3 0 -5 6 -6 12 -1 16 9 112
11 156 2 17 -4 32 -4 32 0 0 3 45 6 100 6 55 0 100 -4 100 -8 0 -5 4 -6 9 -2
17 10 71 12 71 2 0 -6 5 -6 13 0 14 10 107 10 125 -1 7 -4 12 -4 12 1 0 4 56
8 125 8 69 0 125 -4 125 -8 0 -5 5 -5 11 -1 16 9 149 11 149 1 0 -5 5 -5 11
-1 16 9 149 11 149 1 0 -5 5 -5 11 -1 16 9 149 11 149 1 0 -5 5 -5 11 -1 16 9
149 11 149 1 0 -5 5 -5 11 -1 16 9 149 11 149 1 0 -5 5 -5 11 -1 16 9 149 11
149 1 0 -5 5 -5 11 -1 16 9 149 11 149 1 0 -5 4 -6 9 -2 17 10 71 13 71 3 0
-5 6 -6 13 -1 15 9 111 11 155 2 17 -4 32 -4 32 0 0 3 45 6 100 6 55 0 100 -4
100 -8 0 -5 4 -6 9 -2 17 10 71 13 71 3 0 -5 6 -6 13 -1 15 9 111 11 155 2 17
-4 32 -4 32 0 0 3 45 6 100 6 55 0 100 -4 100 -8 0 -5 4 -6 9 -2 17 10 71 12
71 2 0 -6 5 -6 13 0 14 10 107 10 125 -1 7 -4 12 -4 12 1 0 4 56 8 125 8 69 0
125 -4 125 -8 0 -5 5 -5 11 -1 16 9 149 11 149 1 0 -5 5 -5 11 -1 16 9 149 11
149 1 0 -5 5 -5 11 -1 16 9 149 11 149 1 0 -5 5 -5 11 -1 16 9 149 11 149 1 0
-5 5 -5 11 -1 16 9 149 11 149 1 0 -5 5 -5 11 -1 16 9 149 11 149 1 0 -5 5 -5
11 -1 16 9 149 11 149 1 0 -5 4 -6 9 -2 17 10 71 13 71 3 0 -5 6 -6 13 -1 15
9 111 11 155 2 17 -4 32 -4 32 0 0 3 45 6 100 6 55 0 100 -4 100 -8 0 -5 4 -6
9 -2 17 10 71 13 71 3 0 -5 6 -6 13 -1 15 9 111 11 155 2 17 -4 32 -4 32 0 0
3 45 6 100 6 55 0 100 -4 100 -8 0 -5 4 -6 9 -2 17 10 71 12 71 2 0 -6 5 -6
13 0 14 10 107 10 125 -1 7 -4 12 -4 12 1 0 4 56 8 125 8 69 0 125 -4 125 -8
0 -5 5 -5 11 -1 16 9 149 11 149 1 0 -5 5 -5 11 -1 16 9 149 11 149 1 0 -5 5
-5 11 -1 16 9 149 11 149 1 0 -5 5 -5 11 -1 16 9 149 11 149 1 0 -5 5 -5 11
-1 16 9 149 11 149 1 0 -5 5 -5 11 -1 16 9 149 11 149 1 0 -5 5 -5 11 -1 16 9
149 11 149 1 0 -5 4 -6 9 -2 17 10 71 13 71 3 0 -5 6 -6 13 -1 15 9 111 11
155 2 17 -4 32 -4 32 0 0 3 54 5 120 5 66 -1 120 1 120 5 0 8 -15 36 -78 145
-29 49 -52 93 -52 97 0 5 -4 9 -8 9 -4 0 -15 15 -23 33 -9 17 -45 83 -82 146
-37 62 -67 117 -67 121 0 5 -3 10 -7 12 -5 1 -18 21 -29 43 -21 40 -154 271
-193 336 -12 19 -25 43 -30 54 -5 11 -21 37 -35 58 -14 21 -26 40 -26 43 0 3
-49 90 -109 192 -60 103 -119 205 -131 227 -12 22 -26 45 -30 50 -4 6 -21 35
-37 65 -17 30 -70 123 -118 205 -48 83 -97 168 -110 190 -12 22 -32 56 -43 75
-12 19 -35 60 -52 90 -16 30 -41 73 -55 95 -14 22 -28 47 -32 55 -4 8 -42 74
-85 148 -43 73 -78 137 -78 142 0 6 -4 10 -10 10 -5 0 -10 4 -10 9 0 9 -93
176 -128 231 -9 14 -15 28 -14 33 1 4 -3 7 -8 7 -6 0 -10 5 -10 10 0 6 -12 29
-26 51 -14 23 -37 62 -51 87 -15 26 -35 61 -45 77 -10 17 -25 44 -33 60 -22
43 -39 69 -50 77 -5 4 -6 8 -2 8 5 0 0 12 -11 28 -15 21 -233 396 -345 592
-27 48 -109 190 -124 215 -7 11 -15 27 -19 35 -4 8 -25 43 -46 78 -21 34 -38
64 -38 67 0 2 -25 45 -55 95 -30 50 -55 92 -55 94 0 2 -37 66 -81 142 -85 144
-106 181 -142 249 -12 22 -24 42 -27 45 -13 12 -40 60 -34 60 4 0 0 8 -9 18
-9 10 -27 38 -40 62 -26 48 -37 68 -116 203 -28 49 -51 93 -51 98 0 5 -4 9
-10 9 -5 0 -10 4 -10 9 0 8 -80 150 -119 211 -8 14 -16 27 -16 30 0 3 -8 16
-17 30 -17 27 -67 113 -149 258 -12 20 -30 51 -40 67 -11 17 -22 37 -26 45 -4
8 -33 59 -65 113 -32 55 -58 100 -58 102 0 1 -25 44 -55 94 -30 51 -55 93 -55
95 0 2 -18 34 -40 70 -22 36 -40 68 -40 71 0 2 -18 34 -40 70 -22 36 -40 70
-40 75 0 6 -4 10 -10 10 -5 0 -10 4 -10 9 0 9 -48 97 -86 158 -8 13 -15 26
-15 30 0 5 -6 15 -14 23 -7 8 -22 33 -34 55 -12 22 -26 47 -31 55 -24 37 -252
435 -284 495 -11 22 -24 42 -27 45 -3 3 -10 13 -15 23 -9 16 -12 15 -24 -10z
m83 -2116 c32 -54 57 -101 57 -104 0 -2 8 -17 19 -31 18 -27 62 -103 88 -154
8 -15 19 -30 24 -33 5 -4 7 -11 4 -16 -4 -5 -2 -9 2 -9 5 0 20 -22 34 -50 13
-27 27 -50 32 -50 4 0 7 -4 7 -10 0 -5 14 -33 31 -62 35 -59 60 -101 97 -168
14 -25 36 -62 49 -82 12 -21 23 -40 23 -43 0 -3 11 -22 24 -43 12 -20 66 -111
118 -202 52 -91 127 -221 167 -289 39 -68 71 -127 71 -132 0 -5 5 -9 10 -9 6
0 10 -4 10 -9 0 -9 49 -99 88 -161 9 -14 15 -27 15 -30 -1 -3 4 -12 11 -20 7
-8 28 -42 47 -75 19 -33 39 -69 46 -80 7 -11 15 -27 20 -35 4 -8 31 -55 60
-104 29 -49 53 -90 53 -92 0 -2 26 -48 58 -101 32 -54 61 -105 65 -113 4 -8
11 -22 17 -30 27 -40 140 -242 140 -251 0 -5 3 -9 8 -9 4 0 20 -26 37 -58 16
-31 32 -59 35 -62 3 -3 16 -25 29 -50 13 -25 29 -52 36 -60 6 -8 17 -30 25
-47 7 -18 16 -33 21 -33 5 0 9 -5 9 -10 0 -9 65 -127 111 -200 5 -8 17 -30 26
-47 9 -18 20 -33 25 -33 4 0 8 -7 8 -16 0 -9 8 -28 19 -42 10 -15 29 -47 43
-72 14 -25 48 -85 77 -133 28 -49 51 -93 51 -98 0 -5 5 -9 10 -9 6 0 10 -4 10
-10 0 -5 18 -39 40 -75 22 -36 40 -67 40 -69 0 -2 26 -48 58 -103 32 -54 61
-105 65 -113 4 -8 16 -28 27 -45 11 -16 23 -37 27 -45 7 -15 47 -85 159 -275
32 -55 59 -102 59 -105 0 -3 8 -16 17 -30 9 -14 18 -32 20 -40 3 -12 -334 -14
-2645 -15 -1457 0 -2651 3 -2653 6 -2 3 33 68 76 143 44 76 80 142 80 147 0 5
5 9 10 9 6 0 10 4 10 9 0 13 152 275 162 279 4 2 8 9 8 14 0 10 20 46 109 198
11 19 41 71 66 115 25 44 50 87 55 95 36 58 100 173 100 181 0 5 3 9 8 9 4 0
13 15 21 33 8 17 21 40 29 50 9 10 17 26 18 35 2 9 8 18 13 20 6 2 11 8 11 13
0 5 18 38 40 74 22 36 40 67 40 70 0 2 25 45 55 95 30 50 55 95 55 100 0 6 4
10 8 10 4 0 13 12 19 28 14 31 69 130 82 146 5 6 21 34 37 61 15 28 36 64 46
80 10 17 24 41 31 55 6 14 31 57 53 95 23 39 51 86 62 105 34 59 129 225 186
323 29 50 75 130 102 177 27 47 52 87 56 88 4 2 8 11 8 21 0 9 5 22 11 28 6 6
16 21 23 32 6 12 49 87 96 168 47 81 98 169 114 197 15 28 37 63 48 79 11 15
16 27 11 27 -4 0 -3 4 2 8 6 4 16 18 24 32 66 115 348 605 371 642 15 25 31
56 35 67 3 12 11 21 16 21 5 0 9 4 9 9 0 5 22 47 49 93 27 45 64 111 83 146
18 34 36 62 40 62 5 0 8 5 8 11 0 19 53 100 60 92 4 -4 32 -52 63 -106z"/>
<path d="M4060 3762 l0 -948 350 0 c344 1 350 1 351 21 0 11 0 45 -1 75 0 30
-1 62 0 70 0 88 -2 155 -5 159 -3 2 0 10 6 17 7 8 7 14 0 18 -6 4 -7 15 -1 30
4 12 5 29 0 36 -5 7 -5 23 -1 34 3 12 5 35 4 51 -5 51 -5 87 1 92 2 3 1 16 -4
29 -6 15 -6 26 1 30 7 4 7 10 0 18 -6 7 -6 18 -1 26 4 7 5 23 0 34 -4 12 -4
29 -1 40 4 10 5 35 3 55 -7 72 -7 87 -1 119 4 17 3 34 -2 37 -4 3 -5 16 -1 28
8 23 7 85 -2 94 -2 3 -1 16 4 29 6 16 6 24 -1 24 -6 0 -6 6 -1 18 5 9 6 26 2
37 -4 11 -4 29 -1 40 8 22 6 84 -3 92 -2 3 -1 16 4 29 6 16 6 24 -1 24 -6 0
-6 6 -1 18 5 9 6 26 2 37 -4 11 -4 29 0 40 4 11 4 29 0 40 -4 11 -4 34 1 52 4
18 3 35 -2 38 -4 3 -5 16 -1 28 8 23 7 85 -2 94 -2 3 -1 16 4 29 6 16 6 24 -1
24 -6 0 -7 6 -1 16 4 8 6 28 4 45 l-4 29 -349 0 -349 0 0 -948z"/>
<path d="M4058 2221 c-2 -218 0 -275 10 -279 7 -2 166 -5 352 -6 l338 -1 4 27
c3 15 1 33 -3 39 -4 7 -4 22 0 33 4 12 4 39 1 61 -3 22 -2 55 1 73 4 17 3 34
-2 37 -4 3 -5 16 -1 28 8 23 7 85 -2 94 -2 3 -1 16 4 29 6 16 6 24 -1 24 -6 0
-6 7 -1 18 4 9 5 35 2 57 l-5 40 -347 0 -347 0 -3 -274z"/>
</g>
</svg>
