<?xml version="1.0" encoding="UTF-8" standalone="no"?>
<svg
   xmlns:dc="http://purl.org/dc/elements/1.1/"
   xmlns:cc="http://creativecommons.org/ns#"
   xmlns:rdf="http://www.w3.org/1999/02/22-rdf-syntax-ns#"
   xmlns:svg="http://www.w3.org/2000/svg"
   xmlns="http://www.w3.org/2000/svg"
   id="svg24527"
   version="1.1"
   viewBox="0 0 108.60036 57.684689"
   height="57.684689mm"
   width="108.60036mm">
  <defs
     id="defs24521" />
  <metadata
     id="metadata24524">
    <rdf:RDF>
      <cc:Work
         rdf:about="">
        <dc:format>image/svg+xml</dc:format>
        <dc:type
           rdf:resource="http://purl.org/dc/dcmitype/StillImage" />
        <dc:title></dc:title>
      </cc:Work>
    </rdf:RDF>
  </metadata>
  <g
     transform="translate(-52.289104,-58.002891)"
     id="layer1">
    <path
       style="fill:none;fill-opacity:1;stroke:#231f20;stroke-width:0.15000001;stroke-miterlimit:4;stroke-dasharray:none;stroke-opacity:1"
       d="M 52.364104,102.72743 H 160.81465 M 52.364104,115.68758 V 89.767301 m 0,12.960129 c 0.04524,0 0.09049,0 0.135733,0 0.04524,0 0.09049,0 0.135733,0 0.04524,0 0.09049,0 0.135733,0 0.04524,0 0.09049,0 0.135732,0 0.04524,0 0.09049,0 0.135733,0 0.04525,0 0.09049,0 0.135733,0 0.04524,0 0.09049,0 0.135733,0 0.04524,0 0.09049,0 0.135733,0 0.04524,0 0.09049,0 0.135733,0 0.04524,0 0.09049,0 0.135733,0 0.04524,0 0.09049,0 0.135732,0 0.04525,0 0.09049,0 0.135733,0 0.04525,0 0.09049,0 0.135733,0 0.04524,0 0.09049,0 0.135733,0 0.04524,0 0.09049,0 0.135733,0 0.04524,0 0.09049,0 0.135733,0 0.04524,0 0.09049,0 0.135733,0 0.04524,0 0.09049,0 0.135732,0 0.04525,0 0.09049,0 0.135733,0 0.04525,0 0.09049,0 0.135733,0 0.04524,0 0.09049,0 0.135733,0 0.04524,0 0.09049,0 0.135733,0 0.04524,0 0.09049,0 0.135732,0 0.04524,0 0.09049,0 0.135732,0 0.04525,0 0.09049,0 0.135734,0 0.04525,0 0.09049,0 0.135733,0 0.04524,0 0.09049,0 0.135733,0 0.04524,0 0.09049,0 0.135733,0 0.04524,0 0.09049,0 0.135732,0 0.04524,0 0.09049,0 0.135734,0 0.04524,0 0.09049,0 0.135732,0 0.04525,0 0.09049,0 0.135733,0 0.04525,0 0.09049,0 0.135733,0 0.04524,0 0.09049,0 0.135733,0 0.04524,0 0.09049,0 0.135733,0 0.04524,0 0.09049,0 0.135733,0 0.04524,0 0.09049,0 0.135733,0 0.04524,0 0.09049,0 0.135731,0 0.04525,0 0.09049,0 0.135734,0 0.04524,0 0.09049,0 0.135733,0 0.04524,0 0.09049,0 0.135733,0 0.04524,0 0.09049,0 0.135733,0 0.04524,0 0.09049,0 0.135733,0 0.04524,0 0.09049,0 0.135733,0 0.04524,0 0.09049,0 0.135732,0 0.04524,0 0.09049,0 0.135733,0 0.04525,0 0.09049,0 0.135733,0 0.04524,0 0.09049,0 0.135733,0 0.04524,0 0.09049,0 0.135732,0 0.04524,0 0.09049,0 0.135734,0 0.04524,0 0.09049,0 0.135733,0 0.04524,0 0.09049,0 0.135732,0 0.04525,0 0.09049,0 0.135733,0 0.04525,0 0.09049,-0.81801 0.135733,-1.48731 0.04524,-0.66932 0.09049,-1.324679 0.135733,-1.948139 0.04524,-0.62345 0.09049,-1.21474 0.135733,-1.7578 0.04524,-0.54306 0.09049,-1.03754 0.135733,-1.47011 0.04524,-0.43258 0.09049,-0.80284 0.135733,-1.10098 0.04524,-0.29813 0.09049,-0.52367 0.135732,-0.67085 0.04525,-0.14716 0.09049,-0.21549 0.135733,-0.20355 0.04524,0.0119 0.09049,0.10462 0.135733,0.27501 0.04524,0.17041 0.09049,0.41895 0.135733,0.73835 0.04524,0.31941 0.09049,0.71006 0.135733,1.16078 0.04524,0.45072 0.09049,0.96183 0.135733,1.5189 0.04524,0.55707 0.09049,1.16033 0.135732,1.79289 0.04525,0.632559 0.09049,1.294529 0.135733,1.967539 0.04525,0.67301 0.09049,1.35704 0.135733,2.03321 0.04524,0.67617 0.09049,1.34436 0.135733,1.98624 0.04524,0.64186 0.09049,1.25721 0.135733,1.82921 0.04524,0.57202 0.09049,1.10041 0.135733,1.5709 0.04524,0.47046 0.09049,0.88263 0.135733,1.2255 0.04524,0.34287 0.09049,0.616 0.135732,0.81226 0.04525,0.19627 0.09049,0.31521 0.135732,0.35401 0.04525,0.0388 0.09049,-0.003 0.135733,-0.12386 0.04524,-0.12083 0.09049,-0.32111 0.135733,-0.59486 0.04524,-0.27376 0.09049,-0.6214 0.135733,-1.03292 0.04524,-0.41152 0.09049,-0.88725 0.135733,-1.41374 0.04524,-0.52649 0.09049,-1.10397 0.135733,-1.71625 0.04524,-0.61229 0.09049,-1.25952 0.135732,-1.92369 0.04525,-0.66417 0.09049,-1.3453 0.135733,-2.02455 0.04524,-0.67925 0.09049,-1.35655 0.135733,-2.01326 0.04524,-0.656709 0.09049,-1.292649 0.135733,-1.890439 0.04524,-0.59779 0.09049,-1.15714 0.135733,-1.66289 0.04524,-0.50575 0.09049,-0.95752 0.135734,-1.34322 0.04524,-0.38569 0.09049,-0.70487 0.135733,-0.94915 0.04524,-0.24426 0.09049,-0.41316 0.135732,-0.50248 0.04524,-0.0893 0.09049,-0.0986 0.135733,-0.028 0.04525,0.0706 0.09049,0.22148 0.135733,0.44806 0.04524,0.22658 0.09049,0.52927 0.135733,0.89929 0.04524,0.37002 0.09049,0.80773 0.135733,1.30069 0.04524,0.49297 0.09049,1.04145 0.135733,1.63005 0.04524,0.5886 0.09049,1.21747 0.135733,1.869099 0.04524,0.65162 0.09049,1.32605 0.135732,2.0046 0.04525,0.67855 0.09049,1.36117 0.135733,2.02906 0.04525,0.66788 0.09049,1.32088 0.135733,1.9411 0.04524,0.62023 0.09049,1.20742 0.135733,1.74563 0.04524,0.5382 0.09049,1.02707 0.135733,1.45343 0.04524,0.42637 0.09049,0.78982 0.135733,1.08073 0.04524,0.29091 0.09049,0.50882 0.135733,0.64816 0.04524,0.13934 0.09049,0.19963 0.135732,0.17967 0.04525,-0.02 0.09049,-0.12062 0.135733,-0.29876 0.04524,-0.17814 0.09049,-0.43419 0.135733,-0.76065 0.04524,-0.32645 0.09049,-0.7237 0.135733,-1.18039 0.04524,-0.45669 0.09049,-0.97312 0.135733,-1.53475 0.04524,-0.56162 0.09049,-1.16863 0.135733,-1.80408 0.04524,-0.63544 0.09049,-1.29941 0.135732,-1.97347 0.04525,-0.67406 0.09049,-1.08424 0.135733,-1.08424 0.04525,0 0.09049,0 0.135733,0 0.04524,0 0.09049,0 0.135733,0 0.04524,0 0.09049,0 0.135733,0 0.04524,0 0.09049,0 0.135733,0 0.04524,0 0.09049,0 0.135733,0 0.04524,0 0.09049,0 0.135732,0 0.04525,0 0.09049,0 0.135733,0 0.04525,0 0.09049,0 0.135733,0 0.04524,0 0.09049,0 0.135733,0 0.04524,0 0.09049,0 0.135733,0 0.04524,0 0.09049,0 0.135733,0 0.04524,0 0.09049,0 0.135733,0 0.04524,0 0.09049,0 0.135732,0 0.04525,0 0.09049,0 0.135733,0 0.04524,0 0.09049,0 0.135733,0 0.04524,0 0.09049,0 0.135733,0 0.04524,0 0.09049,0 0.135733,0 0.04524,0 0.09049,0 0.135733,0 0.04524,0 0.09049,0 0.135733,0 0.04524,0 0.09049,0 0.135732,0 0.04524,0 0.09049,0 0.135733,0 0.04525,0 0.09049,0 0.135733,0 0.04524,0 0.09049,0 0.135733,0 0.04524,0 0.09049,0 0.135733,0 0.04524,0 0.09049,0 0.135733,0 0.04524,0 0.09049,0 0.135733,0 0.04524,0 0.09049,0 0.135732,0 0.04525,0 0.09049,0 0.135733,0 0.04525,0 0.09049,0 0.135733,0 0.04524,0 0.09049,0 0.135733,0 0.04524,0 0.09049,0 0.135733,0 0.04524,0 0.09049,0 0.135733,0 0.04524,0 0.09049,0 0.135732,0 0.04525,0 0.09049,0 0.135733,0 0.04525,0 0.09049,0 0.135733,0 0.04524,0 0.09049,0 0.135733,0 0.04524,0 0.09049,0 0.135733,0 0.04524,0 0.09049,0 0.135733,0 0.04524,0 0.09049,0 0.135733,0 0.04524,0 0.09049,0 0.135732,0 0.04525,0 0.09049,0 0.135733,0 0.04525,0 0.09049,0 0.135733,0 0.04524,0 0.09049,0 0.135733,0 0.04524,0 0.09049,0 0.135733,0 0.04524,0 0.09049,0 0.135733,0 0.04524,0 0.09049,0 0.135733,0 0.04524,0 0.09049,0 0.135732,0 0.04525,0 0.09049,0 0.135733,0 0.04525,0 0.09049,0 0.135733,0 0.04524,0 0.09049,0 0.135733,0 0.04524,0 0.09049,0 0.135733,0 0.04524,0 0.09049,0 0.135733,0 0.04524,0 0.09049,0.27118 0.135733,-0.40751 0.04524,-0.67869 0.09049,-1.35351 0.135732,-2.00593 0.04525,-0.652419 0.09049,-1.282229 0.135733,-1.872239 0.04524,-0.59 0.09049,-1.1399 0.135733,-1.63481 0.04524,-0.49491 0.09049,-0.93444 0.135733,-1.30683 0.04524,-0.37239 0.09049,-0.67721 0.135733,-0.90645 0.04524,-0.22925 0.09049,-0.38246 0.135733,-0.45586 0.04524,-0.0734 0.09049,-0.0665 0.135733,0.02 0.04524,0.0865 0.09049,0.2531 0.135732,0.49473 0.04524,0.24162 0.09049,0.5587 0.135733,0.94206 0.04525,0.38336 0.09049,0.83335 0.135733,1.33721 0.04524,0.50385 0.09049,1.06184 0.135733,1.65827 0.04524,0.59644 0.09049,1.2315 0.135733,1.887479 0.04524,0.65598 0.09049,1.33294 0.135733,2.01212 0.04524,0.67918 0.09049,1.36053 0.135733,2.02529 0.04524,0.66476 0.09049,1.31275 0.135732,1.92626 0.04525,0.61351 0.09049,1.19226 0.135733,1.72053 0.04525,0.52827 0.09049,1.00571 0.135733,1.41948 0.04524,0.41377 0.09049,0.76345 0.135733,1.03979 0.04524,0.27635 0.09049,0.4789 0.135733,0.60251 0.04524,0.12361 0.09049,0.16781 0.135733,0.13184 0.04524,-0.036 0.09049,-0.15257 0.135732,-0.34613 0.04525,-0.19356 0.09049,-0.4645 0.135733,-0.80492 0.04525,-0.34043 0.09049,-0.7507 0.135733,-1.21913 0.04524,-0.46843 0.09049,-0.99531 0.135733,-1.56579 0.04524,-0.57049 0.09049,-1.18478 0.135733,-1.82572 0.04524,-0.64094 0.09049,-1.30862 0.135733,-1.9845 0.04524,-0.67589 0.09049,-1.35996 0.135733,-2.03335 0.04524,-0.67339 0.09049,-1.33596 0.135732,-1.969549 0.04525,-0.63359 0.09049,-1.23796 0.135733,-1.79664 0.04525,-0.55869 0.09049,-1.07137 0.135733,-1.52421 0.04524,-0.45284 0.09049,-0.84543 0.135733,-1.16734 0.04524,-0.3219 0.09049,-0.57266 0.135733,-0.74579 0.04524,-0.17313 0.09049,-0.26816 0.135733,-0.28293 0.04524,-0.0148 0.09049,0.0512 0.135733,0.1956 0.04524,0.1444 0.09049,0.3677 0.135733,0.66329 0.04525,0.29558 0.09049,0.66385 0.135732,1.09424 0.04525,0.43039 0.09049,0.92323 0.135734,1.46458 0.04524,0.54135 0.09049,1.13145 0.135733,1.75377 0.04524,0.62232 0.09049,1.276999 0.135732,1.945819 0.04524,0.66881 0.09049,1.35179 0.135734,2.03006 0.04524,0.67826 0.09049,1.35171 0.135733,2.00185 0.04524,0.65013 0.09049,1.27675 0.135732,1.86274 0.04525,0.58599 0.09049,1.13105 0.135734,1.62043 0.04524,0.48938 0.09049,0.9227 0.135731,1.28836 0.04524,0.36567 0.09049,0.66323 0.135734,0.88492 0.04524,0.22169 0.09049,0.36702 0.135731,0.43245 0.04524,0.0654 0.09049,0.0505 0.135734,-0.044 0.04524,-0.0945 0.09049,-0.26887 0.135734,-0.51797 0.04524,-0.2491 0.09049,-0.5733 0.135731,-0.96325 0.04524,-0.38995 0.09049,-0.84599 0.135734,-1.35519 0.04525,-0.5092 0.09049,-1.07181 0.135731,-1.67205 0.04524,-0.60023 0.09049,-1.23825 0.135734,-1.89627 0.04524,-0.65802 0.09049,-1.3361 0.135734,-2.01545 0.04524,-0.67936 0.09049,-0.13589 0.135731,-0.13589 0.04524,0 0.09049,0 0.135734,0 0.04524,0 0.09049,0 0.135731,0 0.04525,0 0.09049,0 0.135734,0 0.04525,0 0.09049,0 0.135734,0 0.04524,0 0.09049,0 0.135731,0 0.04524,0 0.09049,0 0.135734,0 0.04524,0 0.09049,0 0.135734,0 0.04524,0 0.09049,0 0.135731,0 0.04524,0 0.09049,0 0.135734,0 0.04525,0 0.09049,0 0.135732,0 0.04524,0 0.09049,0 0.135734,0 0.04524,0 0.09049,0 0.135733,0 0.04524,0 0.09049,0 0.135732,0 0.04524,0 0.09049,0 0.135734,0 0.04524,0 0.09049,0 0.135731,0 0.04524,0 0.09049,0 0.135734,0 0.04524,0 0.09049,0 0.135734,0 0.04524,0 0.09049,0 0.135731,0 0.04524,0 0.09049,0 0.135734,0 0.04524,0 0.09049,0 0.135734,0 0.04524,0 0.09049,0 0.135731,0 0.04524,0 0.09049,0 0.135731,0 0.04524,0 0.09049,0 0.135734,0 0.04525,0 0.09049,0 0.135734,0 0.04524,0 0.09049,0 0.135731,0 0.04524,0 0.09049,0 0.135734,0 0.04524,0 0.09049,0 0.135734,0 0.04524,0 0.09049,0 0.135731,0 0.04524,0 0.09049,0 0.135734,0 0.04525,0 0.09049,0 0.135731,0 0.04525,0 0.09049,0 0.135734,0 0.04524,0 0.09049,0 0.135734,0 0.04524,0 0.09049,0 0.135731,0 0.04524,0 0.09049,0 0.135734,0 0.04524,0 0.09049,0 0.135734,0 0.04524,0 0.09049,0 0.135731,0 0.04525,0 0.09049,0 0.135734,0 0.04525,0 0.09049,0 0.135732,0 0.04524,0 0.09049,0 0.135734,0 0.04524,0 0.09049,0 0.135733,0 0.04524,0 0.09049,0 0.135732,0 0.04524,0 0.09049,0 0.135734,0 0.04524,0 0.09049,0 0.135731,0 0.04525,0 0.09049,0 0.135734,0 0.04525,0 0.09049,0 0.135734,0 0.04524,0 0.09049,0 0.135731,0 0.04524,0 0.09049,0 0.135734,0 0.04524,0 0.09049,0 0.135734,0 0.04524,0 0.09049,0 0.135731,0 0.04525,0 0.09049,0 0.135731,0 0.04525,0 0.09049,0 0.135734,0 0.04524,0 0.09049,0 0.135734,0 0.04524,0 0.09049,-0.68222 0.135731,-1.35328 0.04524,-0.67107 0.09049,-1.32944 0.135734,-1.957059 0.04524,-0.62763 0.09049,-1.22426 0.135734,-1.77367 0.04524,-0.54941 0.09049,-1.05127 0.135731,-1.49203 0.04525,-0.44076 0.09049,-0.82003 0.135734,-1.12773 0.04524,-0.3077 0.09049,-0.54337 0.135731,-0.70095 0.04524,-0.15759 0.09049,-0.23661 0.135734,-0.23536 0.04524,0.001 0.09049,0.0833 0.135734,0.2433 0.04524,0.16002 0.09049,0.39852 0.135731,0.70845 0.04524,0.30994 0.09049,0.6917 0.135734,1.13438 0.04524,0.44267 0.09049,0.94656 0.135732,1.49744 0.04524,0.55089 0.09049,1.14899 0.135733,1.77757 0.04524,0.628589 0.09049,1.287759 0.135734,1.959219 0.04524,0.67146 0.09049,1.35519 0.135732,2.03233 0.04524,0.67713 0.09049,1.34755 0.135733,1.99284 0.04524,0.6453 0.09049,1.26526 0.135734,1.84298 0.04524,0.57771 0.09049,1.11287 0.135732,1.591 0.04524,0.47812 0.09049,0.89883 0.135734,1.25088 0.04524,0.35206 0.09049,0.63501 0.135731,0.84148 0.04524,0.20648 0.09049,0.336 0.135734,0.38546 0.04524,0.0495 0.09049,0.0184 0.135734,-0.0919 0.04524,-0.1103 0.09049,-0.30027 0.135731,-0.56421 0.04524,-0.26394 0.09049,-0.60227 0.135734,-1.00523 0.04524,-0.40297 0.09049,-0.87092 0.135734,-1.39058 0.04524,-0.51967 0.09049,-1.09131 0.135731,-1.69889 0.04524,-0.60758 0.09049,-1.25124 0.135734,-1.91307 0.04524,-0.66183 0.09049,-1.34187 0.135731,-2.02129 0.04524,-0.67942 0.09049,-1.35815 0.135734,-2.01752 0.04524,-0.659369 0.09049,-1.299199 0.135731,-1.901999 0.04524,-0.60279 0.09049,-1.16827 0.135734,-1.68109 0.04524,-0.51283 0.09049,-0.97263 0.135734,-1.36707 0.04524,-0.39444 0.09049,-0.7231 0.135731,-0.97731 0.04524,-0.25421 0.09049,-0.43351 0.135734,-0.53341 0.04524,-0.0999 0.09049,-0.11991 0.135731,-0.06 0.04524,0.06 0.09049,0.20033 0.135734,0.41681 0.04524,0.21648 0.09049,0.50948 0.135734,0.87049 0.04524,0.36101 0.09049,0.7904 0.135731,1.27595 0.04524,0.48555 0.09049,1.02754 0.135734,1.61072 0.04524,0.58319 0.09049,1.20775 0.135732,1.856269 0.04524,0.64851 0.09049,1.32105 0.135733,1.99897 0.04524,0.67792 0.09049,1.36117 0.135734,2.03094 0.04524,0.66977 0.09049,1.32589 0.135732,1.9504 0.04524,0.62451 0.09049,1.21716 0.135733,1.76182 0.04524,0.54466 0.09049,1.04099 0.135734,1.47562 0.04524,0.43464 0.09049,0.80716 0.135732,1.10769 0.04524,0.30053 0.09049,0.52861 0.135734,0.67839 0.04524,0.14978 0.09049,0.22078 0.135731,0.21151 0.04524,-0.009 0.09049,-0.0993 0.135734,-0.26709 0.04524,-0.1678 0.09049,-0.41385 0.135734,-0.73089 0.04524,-0.31705 0.09049,-0.70548 0.135731,-1.1542 0.04524,-0.44872 0.09049,-0.95804 0.135734,-1.51358 0.04524,-0.55554 0.09049,-1.15752 0.135731,-1.7891 0.04524,-0.63158 0.09049,-1.29287 0.135734,-1.9655 0.04525,-0.67264 0.09049,-1.21892 0.135734,-1.21892 0.04524,0 0.09049,0 0.135731,0 0.04524,0 0.09049,0 0.135734,0 0.04524,0 0.09049,0 0.135734,0 0.04524,0 0.09049,0 0.135731,0 0.04524,0 0.09049,0 0.135731,0 0.04525,0 0.09049,0 0.135734,0 0.04525,0 0.09049,0 0.135734,0 0.04524,0 0.09049,0 0.135731,0 0.04524,0 0.09049,0 0.135734,0 0.04524,0 0.09049,0 0.135734,0 0.04524,0 0.09049,0 0.135731,0 0.04524,0 0.09049,0 0.135734,0 0.04525,0 0.09049,0 0.135732,0 0.04525,0 0.09049,0 0.135733,0 0.04524,0 0.09049,0 0.135734,0 0.04524,0 0.09049,0 0.135732,0 0.04524,0 0.09049,0 0.135733,0 0.04524,0 0.09049,0 0.135734,0 0.04524,0 0.09049,0 0.135732,0 0.04525,0 0.09049,0 0.135733,0 0.04524,0 0.09049,0 0.135732,0 0.04524,0 0.09049,0 0.135734,0 0.04524,0 0.09049,0 0.135734,0 0.04524,0 0.09049,0 0.135731,0 0.04524,0 0.09049,0 0.135734,0 0.04525,0 0.09049,0 0.135731,0 0.04525,0 0.09049,0 0.135734,0 0.04524,0 0.09049,0 0.135734,0 0.04524,0 0.09049,0 0.135731,0 0.04524,0 0.09049,0 0.135734,0 0.04524,0 0.09049,0 0.135736,0 0.0452,0 0.0905,0 0.13573,0 0.0452,0 0.0905,0 0.13573,0 0.0452,0 0.0905,0 0.13573,0 0.0452,0 0.0905,0 0.13574,0 0.0452,0 0.0905,0 0.13573,0 0.0452,0 0.0905,0 0.13573,0 0.0452,0 0.0905,0 0.13574,0 0.0452,0 0.0905,0 0.13573,0 0.0452,0 0.0905,0 0.13573,0 0.0452,0 0.0905,0 0.13573,0 0.0452,0 0.0905,0 0.13574,0 0.0452,0 0.0905,0 0.13573,0 0.0452,0 0.0905,0 0.13573,0 0.0452,0 0.0905,0 0.13574,0 0.0452,0 0.0905,0 0.13573,0 0.0452,0 0.0905,0 0.13573,0 0.0452,0 0.0905,0 0.13573,0 0.0452,0 0.0905,0 0.13574,0 0.0452,0 0.0905,0 0.13573,0 0.0452,0 0.0905,0 0.13573,0 0.0452,0 0.0905,0 0.13574,0 0.0452,0 0.0905,0.40738 0.13573,-0.27173 0.0452,-0.67911 0.0905,-1.35562 0.13573,-2.01094 0.0452,-0.655319 0.0905,-1.289259 0.13573,-1.884489 0.0452,-0.59523 0.0905,-1.15146 0.13574,-1.65363 0.0452,-0.50217 0.0905,-0.94989 0.13573,-1.33118 0.0452,-0.38128 0.0905,-0.69569 0.13573,-0.93497 0.0452,-0.23927 0.0905,-0.40295 0.13574,-0.48697 0.0452,-0.084 0.0905,-0.0879 0.13573,-0.012 0.0452,0.0759 0.0905,0.23204 0.13573,0.46365 0.0452,0.23161 0.0905,0.53911 0.13573,0.9136 0.0452,0.37449 0.0905,0.81632 0.13574,1.31295 0.0452,0.49662 0.0905,1.04831 0.13573,1.63956 0.0452,0.59124 0.0905,1.22222 0.13573,1.875339 0.0452,0.65311 0.0905,1.32843 0.13573,2.00723 0.0452,0.6788 0.0905,1.36104 0.13574,2.02792 0.0452,0.66689 0.0905,1.31826 0.13573,1.93628 0.0452,0.61803 0.0905,1.20244 0.13573,1.73737 0.0452,0.53492 0.0905,1.02001 0.13574,1.4422 0.0452,0.4222 0.0905,0.78108 0.13573,1.06715 0.0452,0.28608 0.0905,0.49888 0.13573,0.63298 0.0452,0.13411 0.0905,0.18903 0.13574,0.16374 0.0452,-0.0253 0.0905,-0.13128 0.13573,-0.31457 0.0452,-0.18329 0.0905,-0.44432 0.13573,-0.77545 0.0452,-0.33113 0.0905,-0.73275 0.13573,-1.19338 0.0452,-0.46063 0.0905,-0.98058 0.13574,-1.54519 0.0452,-0.56461 0.0905,-1.17409 0.13573,-1.81141 0.0452,-0.63731 0.0905,-1.30256 0.13573,-1.97727 0.0452,-0.67471 0.0905,-1.35887 0.13574,-2.0336 0.0452,-0.67473 0.0905,-1.3399 0.13573,-1.977269 0.0452,-0.63737 0.0905,-1.2467 0.13573,-1.8114 0.0452,-0.5647 0.0905,-1.08444 0.13573,-1.54519 0.0452,-0.46075 0.0905,-0.86211 0.13574,-1.19338 0.0452,-0.33127 0.0905,-0.59201 0.13573,-0.77545 0.0452,-0.18345 0.0905,-0.28912 0.13573,-0.31458 0.0452,-0.0254 0.0905,0.0298 0.13573,0.16374 0.0452,0.13395 0.0905,0.34705 0.13574,0.63298 0.0452,0.28593 0.0905,0.64508 0.13573,1.06715 0.0452,0.42207 0.0905,0.90738 0.13573,1.44221 0.0452,0.53482 0.0905,1.11941 0.13574,1.73736 0.0452,0.61796 0.0905,1.269429 0.13573,1.936279 0.0452,0.66686 0.0905,1.34912 0.13573,2.02793 0.0452,0.67881 0.0905,1.35407 0.13573,2.00723 0.0452,0.65316 0.0905,1.28401 0.13574,1.87534 0.0452,0.59133 0.0905,1.14282 0.13573,1.63956 0.0452,0.49673 0.0905,0.93832 0.13573,1.31295 0.0452,0.37462 0.0905,0.68184 0.13574,0.9136 0.0452,0.23176 0.0905,0.38759 0.13573,0.46365 0.0452,0.0761 0.0905,0.0719 0.13573,-0.012 0.0453,-0.0838 0.0905,-0.24784 0.13574,-0.48697 0.0453,-0.23913 0.0905,-0.55382 0.13573,-0.93497 0.0452,-0.38115 0.0905,-0.82911 0.13573,-1.33117 0.0452,-0.50206 0.0905,-1.05848 0.13573,-1.65364 0.0452,-0.59515 0.0905,-1.22921 0.13574,-1.88448 0.0452,-0.65528 0.0905,-1.33184 0.13573,-2.01095 0.0452,-0.6791 0.0905,-0.27173 0.13573,-0.27173 0.0452,0 0.0905,0 0.13574,0 0.0453,0 0.0905,0 0.13573,0 0.0452,0 0.0905,0 0.13573,0 0.0452,0 0.0905,0 0.13573,0 0.0452,0 0.0905,0 0.13574,0 0.0452,0 0.0905,0 0.13573,0 0.0452,0 0.0905,0 0.13573,0 0.0452,0 0.0905,0 0.13573,0 0.0452,0 0.0905,0 0.13574,0 0.0452,0 0.0905,0 0.13573,0 0.0452,0 0.0905,0 0.13573,0 0.0452,0 0.0905,0 0.13574,0 0.0452,0 0.0905,0 0.13573,0 0.0452,0 0.0905,0 0.13573,0 0.0452,0 0.0905,0 0.13573,0 0.0452,0 0.0905,0 0.13574,0 0.0452,0 0.0905,0 0.13573,0 0.0452,0 0.0905,0 0.13573,0 0.0452,0 0.0905,0 0.13574,0 0.0452,0 0.0905,0 0.13573,0 0.0452,0 0.0905,0 0.13573,0 0.0452,0 0.0905,0 0.13574,0 0.0452,0 0.0905,0 0.13573,0 0.0452,0 0.0905,0 0.13573,0 0.0452,0 0.0905,0 0.13573,0 0.0452,0 0.0905,0 0.13574,0 0.0452,0 0.0905,0 0.13573,0 0.0452,0 0.0905,0 0.13573,0 0.0452,0 0.0905,0 0.13574,0 0.0452,0 0.0905,0 0.13573,0 0.0452,0 0.0905,0 0.13573,0 0.0452,0 0.0905,0 0.13573,0 0.0452,0 0.0905,0 0.13574,0 0.0452,0 0.0905,0 0.13573,0 0.0452,0 0.0905,0 0.13573,0 0.0452,0 0.0905,0 0.13573,0 0.0452,0 0.0905,0 0.13574,0 0.0452,0 0.0905,0 0.13573,0 0.0452,0 0.0905,0 0.13573,0 0.0452,0 0.0905,0 0.13574,0 0.0452,0 0.0905,0 0.13573,0 0.0452,0 0.0905,0 0.13573,0 0.0452,0 0.0905,0 0.13574,0 0.0452,0 0.0905,0 0.13573,0 0.0452,0 0.0905,0 0.13573,0 0.0452,0 0.0905,0 0.13573,0 0.0452,0 0.0905,0 0.13574,0 0.0452,0 0.0905,0 0.13573,0 0.0452,0 0.0905,0 0.13573,0 0.0452,0 0.0905,0 0.13574,0 0.0452,0 0.0905,0 0.13573,0 0.0452,0 0.0905,0 0.13573,0 0.0452,0 0.0905,-0.54625 0.13573,-1.21891 0.0452,-0.67266 0.0905,-1.33387 0.13574,-1.965509 0.0452,-0.63164 0.0905,-1.23346 0.13573,-1.7891 0.0452,-0.55563 0.0905,-1.06473 0.13573,-1.51357 0.0453,-0.44884 0.0905,-0.83702 0.13574,-1.1542 0.0452,-0.31719 0.0905,-0.56293 0.13573,-0.73089 0.0452,-0.16797 0.0905,-0.25766 0.13573,-0.26709 0.0452,-0.009 0.0905,0.0619 0.13573,0.2115 0.0452,0.14963 0.0905,0.37801 0.13574,0.67839 0.0452,0.30039 0.0905,0.67318 0.13573,1.10769 0.0452,0.43451 0.0905,0.93107 0.13573,1.47563 0.0452,0.54456 0.0905,1.13736 0.13574,1.76181 0.0452,0.62445 0.0905,1.280669 0.13573,1.950399 0.0452,0.66974 0.0905,1.35302 0.13573,2.03095 0.0452,0.67793 0.0905,1.35041 0.13573,1.99897 0.0452,0.64856 0.0905,1.273 0.13574,1.85626 0.0452,0.58327 0.0905,1.12507 0.13573,1.61073 0.0452,0.48566 0.0905,0.9148 0.13573,1.27595 0.0452,0.36114 0.0905,0.65386 0.13574,0.87049 0.0452,0.21663 0.0905,0.3567 0.13573,0.41681 0.0452,0.0601 0.0905,0.0398 0.13573,-0.06 0.0452,-0.0997 0.0905,-0.27935 0.13573,-0.53341 0.0452,-0.25407 0.0905,-0.583 0.13574,-0.97731 0.0452,-0.39432 0.0905,-0.85435 0.13573,-1.36707 0.0452,-0.51272 0.0905,-1.07838 0.13573,-1.6811 0.0452,-0.60272 0.0905,-1.24266 0.13574,-1.90199 0.0452,-0.65933 0.0905,-1.3381 0.13573,-2.01752 0.0452,-0.67942 0.0905,-1.35942 0.13573,-2.02129 0.0453,-0.66187 0.0905,-1.305429 0.13573,-1.913079 0.0452,-0.60765 0.0905,-1.17911 0.13574,-1.69888 0.0452,-0.51977 0.0905,-0.98748 0.13573,-1.39058 0.0452,-0.40309 0.0905,-0.74115 0.13573,-1.00524 0.0452,-0.26409 0.0905,-0.45375 0.13574,-0.5642 0.0452,-0.11046 0.0905,-0.14122 0.13573,-0.0919 0.0452,0.0493 0.0905,0.17913 0.13573,0.38545 0.0453,0.20632 0.0905,0.48957 0.13573,0.84148 0.0452,0.35192 0.0905,0.77288 0.13574,1.25089 0.0452,0.47801 0.0905,1.01337 0.13573,1.591 0.0452,0.57763 0.0905,1.19772 0.13573,1.842969 0.0453,0.64525 0.0905,1.31573 0.13574,1.99285 0.0452,0.67712 0.0905,1.36085 0.13573,2.03233 0.0452,0.67148 0.0905,1.33057 0.13573,1.95921 0.0453,0.62864 0.0905,1.22659 0.13573,1.77757 0.0452,0.55098 0.0905,1.05466 0.13574,1.49745 0.0452,0.44279 0.0905,0.8243 0.13573,1.13437 0.0452,0.31008 0.0905,0.54828 0.13573,0.70846 0.0453,0.16018 0.0905,0.24188 0.13574,0.24329 0.0452,0.001 0.0905,-0.0779 0.13573,-0.23535 0.0452,-0.15743 0.0905,-0.3934 0.13573,-0.70095 0.0452,-0.30756 0.0905,-0.68709 0.13573,-1.12773 0.0453,-0.44065 0.0905,-0.94271 0.13574,-1.49203 0.0452,-0.54932 0.0905,-1.14611 0.13573,-1.77367 0.0452,-0.62757 0.0905,-1.28602 0.13573,-1.95706 0.0453,-0.67104 0.0905,-1.35329 0.13574,-1.35329 0.0452,0 0.0905,0 0.13573,0 0.0452,0 0.0905,0 0.13573,0 0.0452,0 0.0905,0 0.13573,0 0.0453,0 0.0905,0 0.13574,0 0.0452,0 0.0905,0 0.13573,0 0.0452,0 0.0905,0 0.13573,0 0.0452,0 0.0905,0 0.13574,0 0.0452,0 0.0905,0 0.13573,0 0.0452,0 0.0905,0 0.13573,0 0.0452,0 0.0905,0 0.13573,0 0.0453,0 0.0905,0 0.13574,0 0.0452,0 0.0905,0 0.13573,0 0.0452,0 0.0905,0 0.13573,0 0.0452,0 0.0905,0 0.13574,0 0.0452,0 0.0905,0 0.13573,0 0.0452,0 0.0905,0 0.13573,0 0.0452,0 0.0905,0 0.13573,0 0.0452,0 0.0905,0 0.13574,0 0.0452,0 0.0905,0 0.13573,0 0.0452,0 0.0905,0 0.13573,0 0.0452,0 0.0905,0 0.13574,0 0.0452,0 0.0905,0 0.13573,0 0.0452,0 0.0905,0 0.13573,0 0.0452,0 0.0905,0 0.13573,0 0.0452,0 0.0905,0 0.13574,0 0.0452,0 0.0905,0 0.13573,0 0.0452,0 0.0905,0 0.13573,0 0.0452,0 0.0905,0 0.13574,0 0.0452,0 0.0905,0 0.13573,0 0.0452,0 0.0905,0 0.13573,0 0.0452,0 0.0905,0 0.13573,0 0.0452,0 0.0905,0 0.13574,0 0.0452,0 0.0905,0 0.13573,0 0.0452,0 0.0905,0 0.13573,0 0.0452,0 0.0905,0 0.13574,0 0.0452,0 0.0905,0 0.13573,0 0.0452,0 0.0905,0 0.13573,0 0.0453,0 0.0905,0 0.13573,0 0.0452,0 0.0905,0 0.13574,0 0.0452,0 0.0905,0 0.13573,0 0.0452,0 0.0905,0 0.13573,0 0.0452,0 0.0905,0 0.13574,0 0.0452,0 0.0905,0 0.13573,0 0.0452,0 0.0905,0 0.13573,0 0.0453,0 0.0905,0 0.13573,0 0.0452,0 0.0905,0 0.13574,0 0.0452,0 0.0905,0 0.13573,0 0.0452,0 0.0905,0 0.13573,0 0.0453,0 0.0905,0 0.13574,0 0.0452,0 0.0905,0 0.13573,0 0.0452,0 0.0905,0 0.13573,0 0.0453,0 0.0905,0 0.13573,0 0.0452,0 0.0905,0.54348 0.13574,-0.13588 0.0452,-0.67936 0.0905,-1.35739 0.13573,-2.01545 0.0452,-0.658069 0.0905,-1.295969 0.13573,-1.896279 0.0453,-0.60031 0.0905,-1.16274 0.13574,-1.67204 0.0452,-0.50931 0.0905,-0.96511 0.13573,-1.35519 0.0452,-0.39008 0.0905,-0.71401 0.13573,-0.96326 0.0452,-0.24925 0.0905,-0.42335 0.13573,-0.51796 0.0452,-0.0946 0.0905,-0.10924 0.13574,-0.044 0.0452,0.0653 0.0905,0.21091 0.13573,0.43245 0.0452,0.22153 0.0905,0.51939 0.13573,0.88491 0.0453,0.36553 0.0905,0.7991 0.13574,1.28837 0.0452,0.48927 0.0905,1.03452 0.13573,1.62043 0.0452,0.58591 0.0905,1.21265 0.13573,1.862739 0.0452,0.65009 0.0905,1.32359 0.13573,2.00185 0.0453,0.67825 0.0905,1.36121 0.13574,2.03006 0.0452,0.66885 0.0905,1.32343 0.13573,1.94582 0.0452,0.62238 0.0905,1.21232 0.13573,1.75377 0.0452,0.54145 0.0905,1.03406 0.13574,1.46457 0.0452,0.43052 0.0905,0.79852 0.13573,1.09425 0.0452,0.29573 0.0905,0.51873 0.13573,0.66329 0.0452,0.14456 0.0905,0.21021 0.13573,0.1956 0.0453,-0.0146 0.0905,-0.10996 0.13574,-0.28294 0.0452,-0.17297 0.0905,-0.42403 0.13573,-0.74579 0.0452,-0.32176 0.0905,-0.71461 0.13573,-1.16733 0.0452,-0.45272 0.0905,-0.96561 0.13574,-1.52421 0.0452,-0.5586 0.0905,-1.16311 0.13573,-1.79664 0.0452,-0.63354 0.0905,-1.29619 0.13573,-1.96955 0.0452,-0.67337 0.0905,-1.35745 0.13573,-2.03335 0.0452,-0.6759 0.0905,-1.34351 0.13574,-1.984499 0.0452,-0.641 0.0905,-1.25515 0.13573,-1.82572 0.0452,-0.57057 0.0905,-1.09725 0.13573,-1.56579 0.0452,-0.46855 0.0905,-0.87857 0.13574,-1.21913 0.0452,-0.34056 0.0905,-0.61121 0.13573,-0.80492 0.0452,-0.19371 0.0905,-0.31 0.13573,-0.34613 0.0452,-0.0361 0.0905,0.008 0.13573,0.13184 0.0452,0.12345 0.0905,0.3263 0.13574,0.6025 0.0452,0.2762 0.0905,0.62615 0.13573,1.0398 0.0452,0.41364 0.0905,0.89131 0.13573,1.41948 0.0452,0.52817 0.0905,1.10709 0.13574,1.72052 0.0452,0.61344 0.0905,1.261539 0.13573,1.926269 0.0452,0.66472 0.0905,1.3461 0.13573,2.02529 0.0452,0.67918 0.0905,1.35609 0.13573,2.01211 0.0452,0.65603 0.0905,1.29097 0.13574,1.88748 0.0452,0.59652 0.0905,1.15431 0.13573,1.65828 0.0452,0.50396 0.0905,0.95371 0.13573,1.33721 0.0452,0.38349 0.0905,0.70028 0.13574,0.94206 0.0452,0.24178 0.0905,0.40806 0.13573,0.49473 0.0452,0.0867 0.0905,0.0932 0.13573,0.02 0.0452,-0.0732 0.0905,-0.22676 0.13573,-0.45586 0.0452,-0.2291 0.0905,-0.53419 0.13574,-0.90645 0.0452,-0.37226 0.0905,-0.81204 0.13573,-1.30683 0.0452,-0.4948 0.0905,-1.04489 0.13573,-1.63482 0.0452,-0.58992 0.0905,-1.21986 0.13574,-1.87223 0.0452,-0.65237 0.0905,-1.32725 0.13573,-2.00593 0.0452,-0.67868 0.0905,-0.40752 0.13573,-0.40752 0.0453,0 0.0905,0 0.13573,0 0.0452,0 0.0905,0 0.13574,0 0.0452,0 0.0905,0 0.13573,0 0.0452,0 0.0905,0 0.13573,0 0.0452,0 0.0905,0 0.13574,0 0.0452,0 0.0905,0 0.13573,0 0.0452,0 0.0905,0 0.13573,0 0.0453,0 0.0905,0 0.13573,0 0.0452,0 0.0905,0 0.13574,0 0.0452,0 0.0905,0 0.13573,0 0.0452,0 0.0905,0 0.13573,0 0.0453,0 0.0905,0 0.13574,0 0.0452,0 0.0905,0 0.13573,0 0.0452,0 0.0905,0 0.13573,0 0.0453,0 0.0905,0 0.13573,0 0.0452,0 0.0905,0 0.13574,0 0.0452,0 0.0905,0 0.13573,0 0.0452,0 0.0905,0 0.13573,0 0.0453,0 0.0905,0 0.13574,0 0.0452,0 0.0905,0 0.13573,0 0.0452,0 0.0905,0 0.13573,0 0.0452,0 0.0905,0 0.13573,0 0.0453,0 0.0905,0 0.13574,0 0.0452,0 0.0905,0 0.13573,0 0.0452,0 0.0905,0 0.13573,0 0.0453,0 0.0905,0 0.13574,0 0.0452,0 0.0905,0 0.13573,0 0.0452,0 0.0905,0 0.13573,0 0.0452,0 0.0905,0 0.13573,0 0.0453,0 0.0905,0 0.13574,0 0.0452,0 0.0905,0 0.13573,0 0.0452,0 0.0905,0 0.13573,0 0.0452,0 0.0905,0 0.13574,0 0.0452,0 0.0905,0 0.13573,0 0.0452,0 0.0905,0 0.13573,0 0.0452,0 0.0905,0 0.13573,0 0.0453,0 0.0905,0 0.13574,0 0.0452,0 0.0905,0 0.13573,0 0.0452,0 0.0905,0 0.13573,0 0.0452,0 0.0905,0 0.13574,0 0.0452,0 0.0905,0 0.13573,0 0.0452,0 0.0905,0 0.13573,0 0.0452,0 0.0905,0 0.13573,0 0.0452,0 0.0905,0 0.13574,0 0.0452,0 0.0905,0 0.13573,0 0.0452,0 0.0905,0 0.13573,0 0.0452,0 0.0905,0 0.13574,0 0.0452,0 0.0905,0 0.13573,0 0.0452,0 0.0905,0 0.13573,0 0.0452,0 0.0905,0 0.13573,0 0.0452,0 0.0905,0 0.13574,0 0.0452,0 0.0905,0 0.13573,0 0.0452,0 0.0905,-0.41016 0.13573,-1.08424 0.0452,-0.67408 0.0905,-1.33797 0.13574,-1.973469 0.0452,-0.6355 0.0905,-1.24237 0.13573,-1.80408 0.0452,-0.56171 0.0905,-1.07794 0.13573,-1.53475 0.0452,-0.4568 0.0905,-0.85379 0.13573,-1.18039 0.0453,-0.3266 0.0905,-0.58235 0.13574,-0.76064 0.0452,-0.1783 0.0905,-0.27865 0.13573,-0.29877 0.0452,-0.0201 0.0905,0.0405 0.13573,0.17968 0.0453,0.13918 0.0905,0.35739 0.13574,0.64815 0.0452,0.29077 0.0905,0.65449 0.13573,1.08073 0.0452,0.42625 0.0905,0.91533 0.13573,1.45344 0.0452,0.5381 0.0905,1.12546 0.13573,1.74562 0.0453,0.62016 0.0905,1.273249 0.13574,1.941109 0.0452,0.66786 0.0905,1.3505 0.13573,2.02906 0.0452,0.67855 0.0905,1.35293 0.13573,2.0046 0.0453,0.65167 0.0905,1.28042 0.13574,1.8691 0.0452,0.58867 0.0905,1.13697 0.13573,1.63004 0.0452,0.49308 0.0905,0.93054 0.13573,1.3007 0.0452,0.37015 0.0905,0.67256 0.13573,0.89929 0.0453,0.22673 0.0905,0.37731 0.13574,0.44806 0.0452,0.0708 0.0905,0.0612 0.13573,-0.028 0.0452,-0.0891 0.0905,-0.25836 0.13573,-0.50248 0.0453,-0.24412 0.0905,-0.56358 0.13574,-0.94914 0.0452,-0.38556 0.0905,-0.83758 0.13573,-1.34322 0.0452,-0.50565 0.0905,-1.06518 0.13573,-1.66289 0.0452,-0.59772 0.0905,-1.23377 0.13573,-1.89044 0.0452,-0.65667 0.0905,-1.33401 0.13574,-2.01326 0.0452,-0.67925 0.0905,-1.36035 0.13573,-2.02455 0.0452,-0.6642 0.0905,-1.311339 0.13573,-1.923689 0.0453,-0.61236 0.0905,-1.18967 0.13574,-1.71625 0.0452,-0.52659 0.0905,-1.0021 0.13573,-1.41375 0.0452,-0.41164 0.0905,-0.75901 0.13573,-1.03291 0.0452,-0.2739 0.0905,-0.47388 0.13573,-0.59486 0.0452,-0.12099 0.0905,-0.1625 0.13574,-0.12386 0.0452,0.0386 0.0905,0.15789 0.13573,0.354 0.0452,0.19612 0.0905,0.46953 0.13573,0.81226 0.0453,0.34273 0.0905,0.75516 0.13574,1.22552 0.0452,0.47036 0.0905,0.99895 0.13573,1.57088 0.0452,0.57193 0.0905,1.18741 0.13573,1.82923 0.0452,0.641819 0.0905,1.310079 0.13573,1.986229 0.0452,0.67615 0.0905,1.36018 0.13574,2.0332 0.0452,0.67303 0.0905,1.33493 0.13573,1.96755 0.0452,0.63262 0.0905,1.23572 0.13573,1.79288 0.0453,0.55717 0.0905,1.06806 0.13574,1.51891 0.0452,0.45084 0.0905,0.84123 0.13573,1.16077 0.0452,0.31955 0.0905,0.5678 0.13573,0.73835 0.0453,0.17055 0.0905,0.26291 0.13573,0.27502 0.0452,0.0121 0.0905,-0.0565 0.13574,-0.20356 0.0452,-0.14701 0.0905,-0.37286 0.13573,-0.67084 0.0452,-0.29799 0.0905,-0.66853 0.13573,-1.10098 0.0453,-0.43245 0.0905,-0.92715 0.13574,-1.47011 0.0452,-0.54296 0.0905,-1.13442 0.13573,-1.75781 0.0452,-0.62339 0.0905,-1.27884 0.13573,-1.94812 0.0453,-0.66929 0.0905,-1.48733 0.13573,-1.48733 0.0452,0 0.0905,0 0.13574,0 0.0452,0 0.0905,0 0.13573,0 0.0452,0 0.0905,0 0.13573,0 0.0453,0 0.0905,0 0.13574,0 0.0452,0 0.0905,0 0.13573,0 0.0452,0 0.0905,0 0.13573,0 0.0453,0 0.0905,0 0.13573,0 0.0452,0 0.0905,0 0.13574,0 0.0452,0 0.0905,0 0.13573,0 0.0452,0 0.0905,0 0.13573,0 0.0453,0 0.0905,0 0.13574,0 0.0452,0 0.0905,0 0.13573,0 0.0452,0 0.0905,0 0.13573,0 0.0453,0 0.0905,0 0.13573,0 0.0452,0 0.0905,0 0.13574,0 0.0452,0 0.0905,0 0.13573,0 0.0452,0 0.0905,0 0.13572,0 0.0453,0 0.0905,0 0.13575,0 0.0452,0 0.0905,0 0.13573,0 0.0452,0 0.0905,0 0.13573,0 0.0453,0 0.0905,0 0.13573,0 0.0453,0 0.0905,0 0.13574,0 0.0452,0 0.0905,0 0.13573,0 0.0452,0 0.0905,0 0.13573,0 0.0452,0 0.0905,0 0.13574,0 0.0452,0 0.0905,0 0.13573,0 0.0452,0 0.0905,0 0.13573,0 0.0453,0 0.0905,0 0.13573,0 0.0453,0 0.0905,0 0.13574,0 0.0452,0 0.0905,0 0.13572,0 0.0452,0 0.0905,0 0.13574,0 0.0452,0 0.0905,0 0.13574,0 0.0452,0 0.0905,0 0.13573,0 0.0452,0 0.0905,0 0.13573,0 0.0453,0 0.0905,0 0.13573,0 0.0453,0 0.0905,0 0.13574,0 0.0452,0 0.0905,0 0.13573,0 0.0452,0 0.0905,0 0.13573,0 0.0452,0 0.0905,0 0.13574,0 0.0452,0 0.0905,0 0.13573,0 0.0452,0 0.0905,0 0.13573,0 0.0453,0 0.0905,0 0.13573,0 0.0453,0 0.0905,0 0.13574,0 0.0452,0 0.0905,0 0.13573,0 0.0452,0 0.0905,0 0.13572,0 0.0452,0 0.0905,0 0.13575,0 0.0452,0 0.0905,0 0.13573,0 0.0452,0 0.0905,0 0.13573,0 0.0453,0 0.0905,0 0.13573,0 0.0453,0 0.0905,0 0.13574,0 0.0452,0 0.0905,0 0.13573,0 0.0452,0 0.0905,0 0.13573,0 0.0452,0 0.0905,0 0.13573,0"
       title="sin(x)*(ceil((x/(4*pi))%2)-1)"
       id="path1305" />
    <path
       style="fill:none;fill-opacity:1;stroke:#231f20;stroke-width:0.15000001;stroke-miterlimit:4;stroke-dasharray:none;stroke-opacity:1"
       d="M 52.364104,70.963031 H 160.81465 M 52.364104,83.923171 v -25.92028 m 0,12.96014 c 0.04524,-0.67944 0.09049,-1.35883 0.135733,-2.01947 0.04524,-0.66064 0.09049,-1.30235 0.135733,-1.90759 0.04524,-0.60524 0.09049,-1.17373 0.135733,-1.69004 0.04524,-0.51631 0.09049,-0.98009 0.135732,-1.37887 0.04524,-0.39878 0.09049,-0.73214 0.135733,-0.9913 0.04524,-0.25916 0.09049,-0.44365 0.135733,-0.54883 0.04524,-0.10518 0.09049,-0.13057 0.135733,-0.0759 0.04524,0.0546 0.09049,0.18974 0.135733,0.40115 0.04524,0.2114 0.09049,0.49953 0.135733,0.85601 0.04524,0.35647 0.09049,0.78166 0.135732,1.26346 0.04524,0.48179 0.09049,1.02048 0.135733,1.60091 0.04525,0.58042 0.09049,1.20277 0.135733,1.84967 0.04524,0.6469 0.09049,1.31844 0.135733,1.99598 0.04524,0.67754 0.09049,1.36105 0.135733,2.03169 0.04524,0.67065 0.09049,1.32828 0.135733,1.95487 0.04524,0.6266 0.09049,1.22191 0.135732,1.76975 0.04524,0.54784 0.09049,1.04786 0.135733,1.48658 0.04525,0.43873 0.09049,0.81575 0.135733,1.12107 0.04524,0.30531 0.09049,0.53846 0.135733,0.69344 0.04524,0.15499 0.09049,0.23134 0.135733,0.22741 0.04524,-0.004 0.09049,-0.0886 0.135733,-0.25123 0.04524,-0.16262 0.09049,-0.40363 0.135733,-0.71594 0.04524,-0.31231 0.09049,-0.69631 0.135732,-1.14101 0.04525,-0.44469 0.09049,-0.9504 0.135732,-1.50284 0.04524,-0.55245 0.09049,-1.15185 0.135734,-1.78144 0.04524,-0.62959 0.09049,-1.28949 0.135733,-1.96135 0.04524,-0.67185 0.09049,-1.35568 0.135733,-2.03259 0.04524,-0.67691 0.09049,-1.34678 0.135733,-1.99124 0.04524,-0.64446 0.09049,-1.26327 0.135732,-1.83958 0.04524,-0.5763 0.09049,-1.10978 0.135733,-1.586 0.04525,-0.47623 0.09049,-0.89481 0.135733,-1.24458 0.04524,-0.34976 0.09049,-0.63027 0.135733,-0.83419 0.04524,-0.20393 0.09049,-0.33081 0.135733,-0.37761 0.04524,-0.0468 0.09049,-0.013 0.135733,0.0999 0.04524,0.11294 0.09049,0.30549 0.135732,0.57189 0.04524,0.2664 0.09049,0.60706 0.135733,1.01218 0.04525,0.40511 0.09049,0.87502 0.135733,1.3964 0.04524,0.52138 0.09049,1.0945 0.135732,1.70327 0.04524,0.60877 0.09049,1.25334 0.135734,1.91577 0.04524,0.66243 0.09049,1.34275 0.135733,2.02215 0.04524,0.67939 0.09049,1.35778 0.135732,2.0165 0.04524,0.65872 0.09049,1.2976 0.135733,1.89915 0.04525,0.60156 0.09049,1.16552 0.135733,1.67659 0.04524,0.51106 0.09049,0.96887 0.135733,1.36113 0.04524,0.39227 0.09049,0.71856 0.135733,0.9703 0.04524,0.25173 0.09049,0.42843 0.135733,0.52569 0.04524,0.0973 0.09049,0.11457 0.135733,0.052 0.04524,-0.0626 0.09049,-0.20563 0.135732,-0.42464 0.04525,-0.21901 0.09049,-0.51444 0.135733,-0.87771 0.04524,-0.36327 0.09049,-0.79475 0.135733,-1.28217 0.04524,-0.48741 0.09049,-1.03104 0.135733,-1.61559 0.04524,-0.58455 0.09049,-1.21021 0.135733,-1.85951 0.04524,-0.64931 0.09049,-1.32234 0.135733,-2.00043 0.04524,-0.67809 0.09049,-1.3612 0.135732,-2.03052 0.04525,-0.66931 0.09049,-1.32467 0.135733,-1.94812 0.04525,-0.62345 0.09049,-1.21475 0.135733,-1.75781 0.04524,-0.54306 0.09049,-1.03753 0.135733,-1.47011 0.04524,-0.43258 0.09049,-0.80284 0.135733,-1.10097 0.04524,-0.29814 0.09049,-0.52368 0.135733,-0.67085 0.04524,-0.14717 0.09049,-0.2155 0.135732,-0.20356 0.04524,0.0119 0.09049,0.10463 0.135733,0.27502 0.04525,0.17039 0.09049,0.41894 0.135733,0.73835 0.04524,0.3194 0.09049,0.71005 0.135733,1.16077 0.04524,0.45073 0.09049,0.96183 0.135733,1.51891 0.04524,0.55707 0.09049,1.16032 0.135733,1.79288 0.04524,0.63256 0.09049,1.29454 0.135733,1.96755 0.04524,0.673 0.09049,1.35703 0.135732,2.0332 0.04525,0.67617 0.09049,1.34436 0.135733,1.98623 0.04524,0.64188 0.09049,1.25721 0.135733,1.82923 0.04524,0.57202 0.09049,1.10041 0.135732,1.57088 0.04524,0.47048 0.09049,0.88265 0.135734,1.22552 0.04524,0.34287 0.09049,0.61599 0.135733,0.81226 0.04524,0.19627 0.09049,0.31521 0.135731,0.354 0.04525,0.0388 0.09049,-0.003 0.135733,-0.12386 0.04525,-0.12082 0.09049,-0.3211 0.135733,-0.59486 0.04524,-0.27376 0.09049,-0.62139 0.135733,-1.03291 0.04524,-0.41152 0.09049,-0.88726 0.135733,-1.41375 0.04524,-0.52648 0.09049,-1.10396 0.135733,-1.71625 0.04524,-0.61228 0.09049,-1.25952 0.135732,-1.92368 0.04525,-0.66417 0.09049,-1.3453 0.135733,-2.02456 0.04525,-0.67925 0.09049,-1.35654 0.135733,-2.01326 0.04524,-0.65671 0.09049,-1.29265 0.135733,-1.89044 0.04524,-0.59778 0.09049,-1.15714 0.135733,-1.66289 0.04524,-0.50575 0.09049,-0.95753 0.135734,-1.34322 0.04524,-0.38569 0.09049,-0.70487 0.135732,-0.94914 0.04524,-0.24427 0.09049,-0.41317 0.135733,-0.50248 0.04525,-0.0893 0.09049,-0.0986 0.135733,-0.028 0.04524,0.0706 0.09049,0.22148 0.135733,0.44806 0.04524,0.22658 0.09049,0.52927 0.135733,0.89929 0.04524,0.37002 0.09049,0.80773 0.135733,1.30069 0.04524,0.49296 0.09049,1.04145 0.135733,1.63005 0.04524,0.58859 0.09049,1.21747 0.135732,1.8691 0.04525,0.65162 0.09049,1.32605 0.135733,2.0046 0.04524,0.67855 0.09049,1.36117 0.135733,2.02906 0.04524,0.66788 0.09049,1.32088 0.135733,1.9411 0.04524,0.62023 0.09049,1.20742 0.135733,1.74563 0.04524,0.5382 0.09049,1.02707 0.135733,1.45343 0.04524,0.42637 0.09049,0.78982 0.135732,1.08073 0.04525,0.29091 0.09049,0.50882 0.135733,0.64816 0.04525,0.13934 0.09049,0.19962 0.135733,0.17967 0.04524,-0.0199 0.09049,-0.12062 0.135733,-0.29876 0.04524,-0.17814 0.09049,-0.43419 0.135733,-0.76065 0.04524,-0.32645 0.09049,-0.7237 0.135733,-1.18039 0.04524,-0.45669 0.09049,-0.97312 0.135732,-1.53475 0.04525,-0.56162 0.09049,-1.16864 0.135733,-1.80408 0.04525,-0.63544 0.09049,-1.29941 0.135733,-1.97347 0.04524,-0.67406 0.09049,-1.3582 0.135733,-2.03353 0.04524,-0.67534 0.09049,-1.34175 0.135733,-1.98095 0.04524,-0.6392 0.09049,-1.25096 0.135733,-1.81862 0.04524,-0.56765 0.09049,-1.09088 0.135733,-1.55554 0.04524,-0.46466 0.09049,-0.87036 0.135732,-1.20629 0.04525,-0.33593 0.09049,-0.60163 0.135733,-0.79021 0.04524,-0.18858 0.09049,-0.29957 0.135733,-0.33036 0.04524,-0.0308 0.09049,0.0191 0.135733,0.14779 0.04524,0.12871 0.09049,0.33669 0.135733,0.61776 0.04524,0.28108 0.09049,0.63564 0.135733,1.05351 0.04524,0.41787 0.09049,0.89937 0.135732,1.43088 0.04525,0.53152 0.09049,1.11329 0.135733,1.72901 0.04525,0.61571 0.09049,1.26552 0.135733,1.93133 0.04524,0.66581 0.09049,1.34765 0.135733,2.02667 0.04524,0.67902 0.09049,1.35512 0.135733,2.00973 0.04524,0.65461 0.09049,1.28753 0.135733,1.88147 0.04524,0.59394 0.09049,1.1486 0.135732,1.64897 0.04525,0.50036 0.09049,0.94605 0.135733,1.32512 0.04525,0.37907 0.09049,0.69108 0.135733,0.92786 0.04524,0.23678 0.09049,0.39784 0.135733,0.4792 0.04524,0.0814 0.09049,0.0826 0.135733,0.004 0.04524,-0.0786 0.09049,-0.23731 0.135733,-0.47143 0.04524,-0.23412 0.09049,-0.54402 0.135732,-0.92074 0.04525,-0.37671 0.09049,-0.8206 0.135733,-1.31904 0.04525,-0.49844 0.09049,-1.05172 0.135733,-1.64428 0.04524,-0.59255 0.09049,-1.22457 0.135733,-1.87841 0.04524,-0.65385 0.09049,-1.32959 0.135733,-2.0085 0.04524,-0.67892 0.09049,-1.36095 0.135733,-2.02732 0.04524,-0.66637 0.09049,-1.31691 0.135733,-1.93382 0.04524,-0.61691 0.09049,-1.19992 0.135732,-1.73319 0.04525,-0.53328 0.09049,-1.01646 0.135733,-1.43656 0.04525,-0.4201 0.09049,-0.77669 0.135733,-1.06034 0.04524,-0.28365 0.09049,-0.49389 0.135733,-0.62537 0.04524,-0.13149 0.09049,-0.18373 0.135733,-0.15577 0.04524,0.028 0.09049,0.13661 0.135733,0.32247 0.04524,0.18586 0.09049,0.44938 0.135732,0.78284 0.04525,0.33346 0.09049,0.73725 0.135733,1.19984 0.04525,0.46259 0.09049,0.98429 0.135733,1.55038 0.04524,0.56609 0.09049,1.17679 0.135733,1.81502 0.04524,0.63824 0.09049,1.30411 0.135733,1.97913 0.04524,0.67502 0.09049,1.35917 0.135733,2.03358 0.04524,0.67441 0.09049,1.33895 0.135732,1.97539 0.04525,0.63644 0.09049,1.24454 0.135733,1.80775 0.04525,0.56321 0.09049,1.0812 0.135733,1.53999 0.04524,0.45878 0.09049,0.85795 0.135733,1.18689 0.04524,0.32894 0.09049,0.58719 0.135733,0.76806 0.04524,0.18087 0.09049,0.28388 0.135733,0.30666 0.04524,0.0228 0.09049,-0.0351 0.135733,-0.1717 0.04524,-0.13657 0.09049,-0.35223 0.135732,-0.64057 0.04525,-0.28835 0.09049,-0.6498 0.135733,-1.07395 0.04524,-0.42416 0.09049,-0.91136 0.135733,-1.44783 0.04524,-0.53648 0.09049,-1.12245 0.135733,-1.74151 0.04524,-0.61907 0.09049,-1.27135 0.135733,-1.93871 0.04524,-0.66736 0.09049,-1.34982 0.135733,-2.02851 0.04524,-0.67869 0.09049,-1.35351 0.135732,-2.00593 0.04525,-0.65242 0.09049,-1.28223 0.135733,-1.87223 0.04525,-0.59001 0.09049,-1.13991 0.135733,-1.63482 0.04524,-0.49491 0.09049,-0.93444 0.135733,-1.30683 0.04524,-0.37239 0.09049,-0.67721 0.135733,-0.90645 0.04524,-0.22925 0.09049,-0.38246 0.135733,-0.45586 0.04524,-0.0734 0.09049,-0.0665 0.135732,0.02 0.04525,0.0865 0.09049,0.2531 0.135733,0.49473 0.04525,0.24162 0.09049,0.5587 0.135733,0.94206 0.04524,0.38336 0.09049,0.83335 0.135733,1.33721 0.04524,0.50385 0.09049,1.06184 0.135733,1.65828 0.04524,0.59643 0.09049,1.23149 0.135733,1.88747 0.04524,0.65598 0.09049,1.33294 0.135733,2.01212 0.04524,0.67918 0.09049,1.36053 0.135732,2.02529 0.04525,0.66476 0.09049,1.31275 0.135733,1.92626 0.04524,0.61351 0.09049,1.19226 0.135733,1.72053 0.04524,0.52827 0.09049,1.00571 0.135733,1.41948 0.04524,0.41377 0.09049,0.76345 0.135733,1.03979 0.04524,0.27635 0.09049,0.4789 0.135733,0.60251 0.04524,0.12361 0.09049,0.16781 0.135732,0.13184 0.04525,-0.036 0.09049,-0.15257 0.135733,-0.34613 0.04525,-0.19356 0.09049,-0.4645 0.135733,-0.80492 0.04524,-0.34042 0.09049,-0.7507 0.135733,-1.21913 0.04524,-0.46843 0.09049,-0.99531 0.135733,-1.56579 0.04524,-0.57049 0.09049,-1.18478 0.135733,-1.82572 0.04524,-0.64094 0.09049,-1.30862 0.135732,-1.9845 0.04525,-0.67589 0.09049,-1.35996 0.135733,-2.03335 0.04525,-0.67339 0.09049,-1.33596 0.135733,-1.96955 0.04524,-0.63359 0.09049,-1.23795 0.135733,-1.79664 0.04524,-0.55869 0.09049,-1.07137 0.135733,-1.52421 0.04524,-0.45284 0.09049,-0.84543 0.135733,-1.16734 0.04524,-0.3219 0.09049,-0.57266 0.135732,-0.74579 0.04525,-0.17313 0.09049,-0.26816 0.135733,-0.28293 0.04525,-0.0148 0.09049,0.0512 0.135733,0.1956 0.04524,0.1444 0.09049,0.3677 0.135734,0.66329 0.04524,0.29558 0.09049,0.66385 0.135731,1.09424 0.04524,0.43039 0.09049,0.92323 0.135734,1.46458 0.04524,0.54135 0.09049,1.13145 0.135734,1.75377 0.04524,0.62232 0.09049,1.277 0.135731,1.94582 0.04525,0.66881 0.09049,1.35179 0.135734,2.03006 0.04524,0.67826 0.09049,1.35171 0.135731,2.00185 0.04524,0.65013 0.09049,1.27675 0.135734,1.86274 0.04524,0.58599 0.09049,1.13105 0.135734,1.62043 0.04524,0.48938 0.09049,0.9227 0.135731,1.28836 0.04524,0.36567 0.09049,0.66323 0.135734,0.88492 0.04525,0.22169 0.09049,0.36702 0.135731,0.43245 0.04525,0.0654 0.09049,0.0505 0.135734,-0.044 0.04524,-0.0944 0.09049,-0.26886 0.135734,-0.51796 0.04524,-0.2491 0.09049,-0.57331 0.135731,-0.96326 0.04524,-0.38995 0.09049,-0.84599 0.135734,-1.35519 0.04524,-0.50919 0.09049,-1.07181 0.135732,-1.67204 0.04525,-0.60024 0.09049,-1.23825 0.135733,-1.89628 0.04525,-0.65802 0.09049,-1.33609 0.135734,-2.01545 0.04524,-0.67936 0.09049,-1.35993 0.135732,-2.02298 0.04524,-0.66306 0.09049,-1.30842 0.135734,-1.91844 0.04524,-0.61002 0.09049,-1.18443 0.135733,-1.70762 0.04524,-0.5232 0.09049,-0.99482 0.135732,-1.40221 0.04524,-0.40738 0.09049,-0.7501 0.135734,-1.0191 0.04525,-0.26901 0.09049,-0.46383 0.135731,-0.57956 0.04524,-0.11572 0.09049,-0.15186 0.135734,-0.10789 0.04524,0.044 0.09049,0.16851 0.135734,0.36974 0.04524,0.20123 0.09049,0.47956 0.135731,0.8269 0.04524,0.34733 0.09049,0.76404 0.135734,1.23824 0.04524,0.4742 0.09049,1.00619 0.135731,1.58099 0.04525,0.5748 0.09049,1.1926 0.135734,1.83615 0.04524,0.64356 0.09049,1.31295 0.135731,1.98961 0.04524,0.67665 0.09049,1.36055 0.135734,2.03282 0.04524,0.67228 0.09049,1.33279 0.135734,1.96344 0.04524,0.63065 0.09049,1.2312 0.135731,1.78529 0.04524,0.55409 0.09049,1.06139 0.135734,1.50822 0.04524,0.44683 0.09049,0.83279 0.135731,1.14761 0.04524,0.31482 0.09049,0.55805 0.135734,0.72342 0.04524,0.16538 0.09049,0.25241 0.135734,0.25917 0.04524,0.007 0.09049,-0.0672 0.135731,-0.21946 0.04524,-0.15223 0.09049,-0.38315 0.135734,-0.68593 0.04524,-0.30278 0.09049,-0.67782 0.135732,-1.11438 0.04524,-0.43656 0.09049,-0.93496 0.135733,-1.48112 0.04524,-0.54615 0.09049,-1.1403 0.135734,-1.76579 0.04524,-0.6255 0.09049,-1.28247 0.135732,-1.95265 0.04524,-0.67019 0.09049,-1.35359 0.135733,-2.03134 0.04524,-0.67774 0.09049,-1.34973 0.135734,-1.99749 0.04524,-0.64776 0.09049,-1.27109 0.135732,-1.85298 0.04524,-0.58189 0.09049,-1.12204 0.135733,-1.60583 0.04524,-0.48379 0.09049,-0.91083 0.135732,-1.26971 0.04524,-0.35889 0.09049,-0.64917 0.135734,-0.86326 0.04524,-0.2141 0.09049,-0.35154 0.135734,-0.40898 0.04524,-0.0574 0.09049,-0.0344 0.135731,0.0679 0.04524,0.10238 0.09049,0.28458 0.135734,0.54112 0.04524,0.25654 0.09049,0.58783 0.135731,0.98431 0.04524,0.39649 0.09049,0.85851 0.135734,1.37298 0.04524,0.51447 0.09049,1.08164 0.135731,1.68558 0.04524,0.60395 0.09049,1.24484 0.135734,1.90481 0.04524,0.65997 0.09049,1.33908 0.135734,2.01851 0.04524,0.67944 0.09049,1.35914 0.135731,2.0204 0.04524,0.66126 0.09049,1.3039 0.135734,1.91035 0.04524,0.60645 0.09049,1.17643 0.135731,1.69447 0.04524,0.51805 0.09049,0.98379 0.135734,1.38474 0.04524,0.40094 0.09049,0.73665 0.135734,0.99827 0.04524,0.26163 0.09049,0.44871 0.135731,0.55652 0.04524,0.10782 0.09049,0.1359 0.135734,0.0839 0.04524,-0.052 0.09049,-0.18443 0.135734,-0.3933 0.04524,-0.20887 0.09049,-0.49455 0.135731,-0.84875 0.04524,-0.3542 0.09049,-0.77728 0.135734,-1.25718 0.04524,-0.47991 0.09049,-1.01694 0.135731,-1.59597 0.04524,-0.57903 0.09049,-1.20026 0.135734,-1.84634 0.04524,-0.64608 0.09049,-1.31709 0.135734,-1.99443 0.04524,-0.67733 0.09049,-1.36096 0.135732,-2.03202 0.04524,-0.67107 0.09049,-1.32944 0.135733,-1.95706 0.04524,-0.62763 0.09049,-1.22426 0.135732,-1.77367 0.04524,-0.54942 0.09049,-1.05127 0.135734,-1.49203 0.04524,-0.44076 0.09049,-0.82003 0.135733,-1.12773 0.04524,-0.3077 0.09049,-0.54337 0.135732,-0.70096 0.04524,-0.15758 0.09049,-0.2366 0.135734,-0.23535 0.04524,10e-4 0.09049,0.0833 0.135731,0.24329 0.04524,0.16003 0.09049,0.39853 0.135734,0.70846 0.04524,0.30993 0.09049,0.6917 0.135734,1.13437 0.04524,0.44268 0.09049,0.94657 0.135731,1.49745 0.04524,0.55089 0.09049,1.14899 0.135734,1.77757 0.04524,0.62859 0.09049,1.28776 0.135734,1.95922 0.04524,0.67146 0.09049,1.35519 0.135731,2.03232 0.04524,0.67714 0.09049,1.34756 0.135731,1.99285 0.04524,0.6453 0.09049,1.26526 0.135734,1.84298 0.04524,0.57771 0.09049,1.11287 0.135734,1.591 0.04524,0.47812 0.09049,0.89883 0.135731,1.25088 0.04524,0.35206 0.09049,0.63501 0.135734,0.84148 0.04524,0.20648 0.09049,0.336 0.135734,0.38546 0.04524,0.0495 0.09049,0.0184 0.135731,-0.0919 0.04524,-0.1103 0.09049,-0.30027 0.135734,-0.56421 0.04524,-0.26394 0.09049,-0.60227 0.135731,-1.00523 0.04524,-0.40297 0.09049,-0.87092 0.135734,-1.39058 0.04524,-0.51967 0.09049,-1.09131 0.135734,-1.69889 0.04524,-0.60757 0.09049,-1.25124 0.135731,-1.91307 0.04524,-0.66183 0.09049,-1.34187 0.135734,-2.02129 0.04524,-0.67942 0.09049,-1.35815 0.135732,-2.01752 0.04524,-0.65938 0.09049,-1.2992 0.135734,-1.902 0.04524,-0.60279 0.09049,-1.16827 0.135733,-1.68109 0.04524,-0.51282 0.09049,-0.97263 0.135732,-1.36707 0.04524,-0.39445 0.09049,-0.7231 0.135734,-0.97731 0.04524,-0.25421 0.09049,-0.43352 0.135731,-0.53341 0.04524,-0.0999 0.09049,-0.11991 0.135734,-0.06 0.04524,0.06 0.09049,0.20033 0.135734,0.41681 0.04524,0.21648 0.09049,0.50948 0.135731,0.87049 0.04524,0.36101 0.09049,0.7904 0.135734,1.27595 0.04524,0.48555 0.09049,1.02754 0.135734,1.61072 0.04524,0.58319 0.09049,1.20775 0.135731,1.85627 0.04524,0.64851 0.09049,1.32105 0.135734,1.99897 0.04524,0.67792 0.09049,1.36118 0.135731,2.03094 0.04524,0.66977 0.09049,1.32589 0.135734,1.9504 0.04524,0.62452 0.09049,1.21716 0.135731,1.76182 0.04524,0.54466 0.09049,1.04099 0.135734,1.47562 0.04524,0.43464 0.09049,0.80716 0.135734,1.10769 0.04524,0.30053 0.09049,0.52861 0.135731,0.67839 0.04524,0.14978 0.09049,0.22078 0.135734,0.21151 0.04524,-0.009 0.09049,-0.0993 0.135731,-0.26709 0.04524,-0.1678 0.09049,-0.41385 0.135734,-0.73089 0.04524,-0.31704 0.09049,-0.70548 0.135734,-1.1542 0.04524,-0.44872 0.09049,-0.95804 0.135731,-1.51358 0.04524,-0.55554 0.09049,-1.15751 0.135734,-1.7891 0.04524,-0.63158 0.09049,-1.29287 0.135732,-1.9655 0.04524,-0.67264 0.09049,-1.35661 0.135733,-2.03304 0.04524,-0.67642 0.09049,-1.34518 0.135734,-1.98793 0.04524,-0.64274 0.09049,-1.25925 0.135732,-1.8327 0.04524,-0.57346 0.09049,-1.10355 0.135733,-1.57595 0.04524,-0.4724 0.09049,-0.88672 0.135734,-1.23189 0.04524,-0.34517 0.09049,-0.62076 0.135732,-0.81958 0.04524,-0.19883 0.09049,-0.32042 0.135734,-0.36188 0.04524,-0.0415 0.09049,-0.002 0.135731,0.11588 0.04524,0.11819 0.09049,0.3159 0.135734,0.58721 0.04524,0.27131 0.09049,0.61663 0.135734,1.02602 0.04524,0.40939 0.09049,0.88319 0.135731,1.40798 0.04524,0.5248 0.09049,1.10083 0.135734,1.71195 0.04524,0.61113 0.09049,1.25748 0.135731,1.92108 0.04524,0.6636 0.09049,1.34447 0.135734,2.02378 0.04524,0.67931 0.09049,1.35698 0.135734,2.01438 0.04524,0.65739 0.09049,1.29431 0.135731,1.89337 0.04524,0.59905 0.09049,1.15995 0.135734,1.66748 0.04524,0.50753 0.09049,0.96132 0.135731,1.34921 0.04524,0.38789 0.09049,0.70945 0.135734,0.95621 0.04524,0.24676 0.09049,0.41826 0.135731,0.51023 0.04524,0.092 0.09049,0.10391 0.135734,0.036 0.04524,-0.0679 0.09049,-0.2162 0.135734,-0.44026 0.04524,-0.22406 0.09049,-0.52434 0.135731,-0.89211 0.04524,-0.36778 0.09049,-0.80342 0.135734,-1.29454 0.04524,-0.49112 0.09049,-1.038 0.135731,-1.62525 0.04524,-0.58726 0.09049,-1.21508 0.135734,-1.86594 0.04524,-0.65086 0.09049,-1.32483 0.135734,-2.00324 0.04524,-0.67841 0.09049,-1.3612 0.135732,-2.02957 0.04524,-0.66838 0.09049,-1.32217 0.135733,-1.94348 0.04524,-0.62131 0.09049,-1.20988 0.135734,-1.74971 0.04524,-0.53983 0.09049,-1.03058 0.135732,-1.45902 0.04524,-0.42844 0.09049,-0.79417 0.135731,-1.08749 0.0452,-0.29333 0.0905,-0.51378 0.13573,-0.65573 0.0452,-0.14196 0.0905,-0.20492 0.13574,-0.18764 0.0452,0.0173 0.0905,0.11529 0.13573,0.29085 0.0452,0.17556 0.0905,0.42911 0.13573,0.75322 0.0452,0.32412 0.0905,0.71917 0.13574,1.17388 0.0452,0.4547 0.0905,0.96937 0.13573,1.52949 0.0452,0.56011 0.0905,1.16588 0.13573,1.80037 0.0452,0.63449 0.0905,1.29781 0.13574,1.97153 0.0452,0.67372 0.0905,1.35783 0.13573,2.03346 0.0452,0.67562 0.0905,1.34263 0.13573,1.98274 0.0452,0.6401 0.0905,1.25306 0.13573,1.82218 0.0452,0.56912 0.0905,1.09407 0.13574,1.56068 0.0452,0.4666 0.0905,0.87447 0.13573,1.21271 0.0452,0.33825 0.0905,0.60643 0.13573,0.79758 0.0452,0.19115 0.0905,0.30479 0.13573,0.33825 0.0452,0.0335 0.0905,-0.0137 0.13574,-0.13982 0.0452,-0.12608 0.0905,-0.3315 0.13573,-0.61014 0.0452,-0.27864 0.0905,-0.6309 0.13573,-1.04666 0.0452,-0.41576 0.0905,-0.89535 0.13573,-1.42519 0.0452,-0.52985 0.0905,-1.1102 0.13574,-1.72478 0.0452,-0.61458 0.0905,-1.26354 0.13573,-1.92881 0.0452,-0.66528 0.0905,-1.34689 0.13573,-2.026 0.0452,-0.67911 0.0905,-1.35562 0.13574,-2.01094 0.0452,-0.65532 0.0905,-1.28926 0.13573,-1.88449 0.0452,-0.59523 0.0905,-1.15146 0.13573,-1.65363 0.0452,-0.50217 0.0905,-0.94989 0.13573,-1.33118 0.0452,-0.38128 0.0905,-0.69569 0.13574,-0.93497 0.0452,-0.23927 0.0905,-0.40295 0.13573,-0.48697 0.0452,-0.084 0.0905,-0.0879 0.13573,-0.012 0.0452,0.0759 0.0905,0.23204 0.13574,0.46365 0.0452,0.23161 0.0905,0.53911 0.13573,0.9136 0.0452,0.37449 0.0905,0.81633 0.13573,1.31295 0.0452,0.49663 0.0905,1.04831 0.13574,1.63956 0.0452,0.59125 0.0905,1.22222 0.13573,1.87534 0.0452,0.65311 0.0905,1.32843 0.13573,2.00723 0.0452,0.6788 0.0905,1.36104 0.13573,2.02793 0.0452,0.66688 0.0905,1.31825 0.13574,1.93628 0.0452,0.61802 0.0905,1.20244 0.13573,1.73736 0.0452,0.53493 0.0905,1.02001 0.13573,1.44221 0.0452,0.42219 0.0905,0.78108 0.13574,1.06715 0.0452,0.28607 0.0905,0.49887 0.13573,0.63298 0.0452,0.1341 0.0905,0.18903 0.13573,0.16373 0.0452,-0.0253 0.0905,-0.13128 0.13573,-0.31457 0.0452,-0.18329 0.0905,-0.44432 0.13574,-0.77545 0.0452,-0.33113 0.0905,-0.73275 0.13573,-1.19338 0.0452,-0.46063 0.0905,-0.98058 0.13573,-1.54519 0.0452,-0.56461 0.0905,-1.17409 0.13573,-1.8114 0.0452,-0.63732 0.0905,-1.30256 0.13574,-1.97727 0.0452,-0.67471 0.0905,-1.35887 0.13573,-2.0336 0.0452,-0.67473 0.0905,-1.3399 0.13573,-1.97727 0.0452,-0.63737 0.0905,-1.24671 0.13574,-1.81141 0.0452,-0.5647 0.0905,-1.08444 0.13573,-1.54519 0.0452,-0.46075 0.0905,-0.86211 0.13573,-1.19338 0.0452,-0.33127 0.0905,-0.59201 0.13573,-0.77545 0.0452,-0.18345 0.0905,-0.28912 0.13574,-0.31457 0.0452,-0.0255 0.0905,0.0298 0.13573,0.16374 0.0452,0.13394 0.0905,0.34705 0.13573,0.63297 0.0452,0.28593 0.0905,0.64509 0.13574,1.06716 0.0452,0.42206 0.0905,0.90737 0.13573,1.4422 0.0452,0.53483 0.0905,1.11941 0.13573,1.73737 0.0452,0.61795 0.0905,1.26942 0.13574,1.93628 0.0452,0.66685 0.0905,1.34911 0.13573,2.02792 0.0452,0.67881 0.0905,1.35407 0.13573,2.00723 0.0452,0.65316 0.0905,1.28402 0.13573,1.87534 0.0452,0.59133 0.0905,1.14283 0.13574,1.63956 0.0452,0.49673 0.0905,0.93833 0.13573,1.31295 0.0452,0.37462 0.0905,0.68184 0.13573,0.9136 0.0452,0.23176 0.0905,0.38759 0.13574,0.46365 0.0452,0.0761 0.0905,0.0719 0.13573,-0.012 0.0452,-0.0839 0.0905,-0.24784 0.13573,-0.48697 0.0452,-0.23913 0.0905,-0.55382 0.13573,-0.93497 0.0452,-0.38115 0.0905,-0.82912 0.13574,-1.33117 0.0452,-0.50206 0.0905,-1.05849 0.13573,-1.65364 0.0452,-0.59515 0.0905,-1.22921 0.13573,-1.88449 0.0452,-0.65527 0.0905,-1.33184 0.13573,-2.01094 0.0452,-0.6791 0.0905,-1.36069 0.13574,-2.02599 0.0452,-0.66531 0.0905,-1.31416 0.13573,-1.92882 0.0452,-0.61465 0.0905,-1.19483 0.13573,-1.72477 0.0452,-0.52995 0.0905,-1.00931 0.13574,-1.4252 0.0452,-0.41588 0.0905,-0.76787 0.13573,-1.04666 0.0452,-0.27878 0.0905,-0.48389 0.13573,-0.61013 0.0452,-0.12624 0.0905,-0.17312 0.13573,-0.13982 0.0452,0.0333 0.0905,0.14725 0.13574,0.33825 0.0452,0.19099 0.0905,0.45946 0.13573,0.79757 0.0452,0.33811 0.0905,0.74623 0.13573,1.21272 0.0452,0.46649 0.0905,0.99165 0.13574,1.56068 0.0452,0.56903 0.0905,1.18213 0.13573,1.82218 0.0452,0.64005 0.0905,1.30713 0.13573,1.98274 0.0453,0.6756 0.0905,1.35972 0.13573,2.03345 0.0452,0.67374 0.0905,1.33698 0.13574,1.97153 0.0452,0.63455 0.0905,1.24017 0.13573,1.80038 0.0452,0.5602 0.0905,1.07466 0.13573,1.52949 0.0452,0.45482 0.0905,0.84962 0.13574,1.17387 0.0452,0.32425 0.0905,0.57751 0.13573,0.75322 0.0452,0.17572 0.0905,0.27341 0.13573,0.29085 0.0452,0.0174 0.0905,-0.0458 0.13574,-0.18763 0.0452,-0.1418 0.0905,-0.36255 0.13573,-0.65573 0.0452,-0.29318 0.0905,-0.65918 0.13573,-1.0875 0.0452,-0.42832 0.0905,-0.91928 0.13573,-1.45901 0.0452,-0.53974 0.0905,-1.12847 0.13574,-1.74972 0.0452,-0.62124 0.0905,-1.27513 0.13573,-1.94347 0.0452,-0.66835 0.0905,-1.35116 0.13573,-2.02958 0.0452,-0.67841 0.0905,-1.35233 0.13573,-2.00324 0.0452,-0.65091 0.0905,-1.27859 0.13574,-1.86593 0.0452,-0.58734 0.0905,-1.13402 0.13573,-1.62525 0.0452,-0.49124 0.0905,-0.92663 0.13573,-1.29454 0.0452,-0.36791 0.0905,-0.6679 0.13574,-0.89211 0.0452,-0.22421 0.0905,-0.37217 0.13573,-0.44026 0.0452,-0.0681 0.0905,-0.0558 0.13573,0.036 0.0452,0.0918 0.0905,0.26361 0.13573,0.51022 0.0452,0.24662 0.0905,0.56845 0.13574,0.95621 0.0452,0.38776 0.0905,0.84179 0.13573,1.34922 0.0452,0.50742 0.0905,1.0685 0.13573,1.66748 0.0453,0.59898 0.0905,1.23602 0.13573,1.89337 0.0452,0.65735 0.0905,1.33506 0.13574,2.01437 0.0452,0.67931 0.0905,1.36015 0.13573,2.02378 0.0452,0.66364 0.0905,1.30989 0.13573,1.92108 0.0452,0.61119 0.0905,1.18706 0.13574,1.71195 0.0452,0.5249 0.0905,0.99847 0.13573,1.40799 0.0452,0.40951 0.0905,0.75456 0.13573,1.02601 0.0452,0.27146 0.0905,0.46886 0.13574,0.58722 0.0452,0.11835 0.0905,0.15718 0.13573,0.11588 0.0452,-0.0413 0.0905,-0.16321 0.13573,-0.36188 0.0452,-0.19867 0.0905,-0.47455 0.13573,-0.81959 0.0452,-0.34503 0.0905,-0.7596 0.13574,-1.23188 0.0452,-0.47229 0.0905,-1.00258 0.13573,-1.57595 0.0452,-0.57337 0.0905,-1.19002 0.13573,-1.83271 0.0452,-0.64269 0.0905,-1.31152 0.13574,-1.98793 0.0452,-0.67641 0.0905,-1.36038 0.13573,-2.03303 0.0452,-0.67266 0.0905,-1.33387 0.13573,-1.96551 0.0452,-0.63164 0.0905,-1.23347 0.13573,-1.7891 0.0452,-0.55563 0.0905,-1.06473 0.13574,-1.51357 0.0453,-0.44884 0.0905,-0.83702 0.13573,-1.15421 0.0452,-0.31718 0.0905,-0.56293 0.13573,-0.73089 0.0452,-0.16796 0.0905,-0.25766 0.13574,-0.26709 0.0452,-0.009 0.0905,0.0619 0.13573,0.21151 0.0452,0.14962 0.0905,0.378 0.13573,0.67839 0.0452,0.30039 0.0905,0.67318 0.13573,1.10769 0.0452,0.43451 0.0905,0.93106 0.13574,1.47563 0.0452,0.54456 0.0905,1.13736 0.13573,1.76181 0.0452,0.62445 0.0905,1.28066 0.13573,1.9504 0.0452,0.66974 0.0905,1.35302 0.13574,2.03095 0.0452,0.67792 0.0905,1.35041 0.13573,1.99897 0.0452,0.64856 0.0905,1.273 0.13573,1.85626 0.0453,0.58327 0.0905,1.12506 0.13573,1.61072 0.0452,0.48566 0.0905,0.91481 0.13574,1.27595 0.0452,0.36115 0.0905,0.65387 0.13573,0.8705 0.0452,0.21663 0.0905,0.3567 0.13573,0.41681 0.0453,0.0601 0.0905,0.0398 0.13574,-0.06 0.0452,-0.0997 0.0905,-0.27935 0.13573,-0.53341 0.0452,-0.25407 0.0905,-0.583 0.13573,-0.97731 0.0452,-0.39432 0.0905,-0.85436 0.13573,-1.36707 0.0452,-0.51272 0.0905,-1.07838 0.13574,-1.6811 0.0452,-0.60272 0.0905,-1.24266 0.13573,-1.90199 0.0452,-0.65934 0.0905,-1.33811 0.13573,-2.01753 0.0453,-0.67942 0.0905,-1.35942 0.13574,-2.02128 0.0452,-0.66187 0.0905,-1.30543 0.13573,-1.91308 0.0452,-0.60765 0.0905,-1.17911 0.13573,-1.69888 0.0452,-0.51977 0.0905,-0.98749 0.13573,-1.39058 0.0453,-0.4031 0.0905,-0.74115 0.13574,-1.00524 0.0452,-0.26409 0.0905,-0.45375 0.13573,-0.56421 0.0452,-0.11045 0.0905,-0.14122 0.13573,-0.0919 0.0452,0.0493 0.0905,0.17914 0.13574,0.38546 0.0452,0.20632 0.0905,0.48956 0.13573,0.84148 0.0452,0.35192 0.0905,0.77287 0.13573,1.25089 0.0452,0.47801 0.0905,1.01337 0.13573,1.591 0.0453,0.57763 0.0905,1.19772 0.13574,1.84297 0.0452,0.64525 0.0905,1.31573 0.13573,1.99285 0.0452,0.67712 0.0905,1.36084 0.13573,2.03232 0.0452,0.67149 0.0905,1.33058 0.13574,1.95922 0.0452,0.62864 0.0905,1.22659 0.13573,1.77757 0.0452,0.55098 0.0905,1.05466 0.13573,1.49745 0.0452,0.44279 0.0905,0.8243 0.13573,1.13437 0.0453,0.31008 0.0905,0.54828 0.13574,0.70846 0.0452,0.16018 0.0905,0.24187 0.13573,0.24329 0.0452,0.001 0.0905,-0.0779 0.13573,-0.23535 0.0452,-0.15743 0.0905,-0.3934 0.13574,-0.70096 0.0452,-0.30755 0.0905,-0.68708 0.13573,-1.12772 0.0452,-0.44065 0.0905,-0.94271 0.13573,-1.49203 0.0452,-0.54932 0.0905,-1.14611 0.13573,-1.77367 0.0452,-0.62757 0.0905,-1.28602 0.13574,-1.95706 0.0452,-0.67104 0.0905,-1.35468 0.13573,-2.03203 0.0452,-0.67735 0.0905,-1.3483 0.13573,-1.99443 0.0452,-0.64612 0.0905,-1.26722 0.13573,-1.84633 0.0453,-0.57912 0.0905,-1.11595 0.13574,-1.59597 0.0452,-0.48002 0.0905,-0.90285 0.13573,-1.25718 0.0452,-0.35434 0.0905,-0.63974 0.13573,-0.84876 0.0452,-0.20901 0.0905,-0.34118 0.13574,-0.3933 0.0452,-0.0521 0.0905,-0.0237 0.13573,0.0839 0.0452,0.10766 0.0905,0.29504 0.13573,0.55652 0.0452,0.26148 0.0905,0.59747 0.13573,0.99828 0.0452,0.40081 0.0905,0.86679 0.13574,1.38473 0.0452,0.51794 0.0905,1.0881 0.13573,1.69448 0.0452,0.60638 0.0905,1.24913 0.13573,1.91035 0.0452,0.66122 0.0905,1.34095 0.13574,2.02039 0.0452,0.67944 0.0905,1.3585 0.13573,2.01851 0.0452,0.66001 0.0905,1.30079 0.13573,1.90481 0.0452,0.60402 0.0905,1.17101 0.13573,1.68558 0.0452,0.51457 0.0905,0.97636 0.13574,1.37298 0.0452,0.39662 0.0905,0.72763 0.13573,0.98431 0.0452,0.25669 0.0905,0.43859 0.13573,0.54113 0.0452,0.10254 0.0905,0.12524 0.13574,0.0679 0.0452,-0.0573 0.0905,-0.19504 0.13573,-0.40898 0.0452,-0.21395 0.0905,-0.50452 0.13573,-0.86326 0.0452,-0.35875 0.0905,-0.78604 0.13573,-1.26972 0.0452,-0.48367 0.0905,-1.02402 0.13574,-1.60582 0.0452,-0.58181 0.0905,-1.20528 0.13573,-1.85299 0.0452,-0.64771 0.0905,-1.31975 0.13573,-1.99749 0.0452,-0.67773 0.0905,-1.36112 0.13574,-2.03133 0.0452,-0.67021 0.0905,-1.3271 0.13573,-1.95265 0.0452,-0.62556 0.0905,-1.21955 0.13573,-1.7658 0.0453,-0.54625 0.0905,-1.04443 0.13573,-1.48111 0.0452,-0.43669 0.0905,-0.81147 0.13574,-1.11439 0.0452,-0.30292 0.0905,-0.53354 0.13573,-0.68592 0.0452,-0.15239 0.0905,-0.22606 0.13573,-0.21946 0.0452,0.007 0.0905,0.094 0.13574,0.25916 0.0452,0.16521 0.0905,0.40874 0.13573,0.72342 0.0452,0.31468 0.0905,0.7009 0.13573,1.14761 0.0453,0.44672 0.0905,0.95423 0.13573,1.50823 0.0452,0.55399 0.0905,1.15469 0.13574,1.78528 0.0452,0.63059 0.0905,1.29119 0.13573,1.96344 0.0452,0.67225 0.0905,1.35616 0.13573,2.03283 0.0453,0.67667 0.0905,1.346 0.13574,1.9896 0.0452,0.64361 0.0905,1.26127 0.13573,1.83616 0.0452,0.57488 0.0905,1.10667 0.13573,1.58099 0.0453,0.47431 0.0905,0.89077 0.13573,1.23824 0.0452,0.34747 0.0905,0.62551 0.13574,0.82689 0.0452,0.20138 0.0905,0.32562 0.13573,0.36975 0.0452,0.0441 0.0905,0.008 0.13573,-0.1079 0.0453,-0.11556 0.0905,-0.31069 0.13574,-0.57955 0.0452,-0.26886 0.0905,-0.61185 0.13573,-1.01911 0.0452,-0.40725 0.0905,-0.87911 0.13573,-1.4022 0.0452,-0.52309 0.0905,-1.09767 0.13573,-1.70762 0.0453,-0.60995 0.0905,-1.25543 0.13574,-1.91844 0.0452,-0.66302 0.0905,-1.34363 0.13573,-2.02299 0.0452,-0.67935 0.0905,-1.35739 0.13573,-2.01545 0.0453,-0.65806 0.0905,-1.29596 0.13574,-1.89627 0.0452,-0.60031 0.0905,-1.16275 0.13573,-1.67205 0.0452,-0.5093 0.0905,-0.96511 0.13573,-1.35519 0.0452,-0.39008 0.0905,-0.71401 0.13573,-0.96325 0.0453,-0.24925 0.0905,-0.42336 0.13574,-0.51797 0.0452,-0.0946 0.0905,-0.10924 0.13573,-0.044 0.0452,0.0653 0.0905,0.21092 0.13573,0.43245 0.0452,0.22154 0.0905,0.51939 0.13574,0.88492 0.0452,0.36553 0.0905,0.79909 0.13573,1.28836 0.0452,0.48927 0.0905,1.03453 0.13573,1.62044 0.0452,0.58591 0.0905,1.21265 0.13573,1.86274 0.0453,0.65008 0.0905,1.32359 0.13574,2.00185 0.0452,0.67825 0.0905,1.36121 0.13573,2.03006 0.0452,0.66885 0.0905,1.32343 0.13573,1.94581 0.0452,0.62239 0.0905,1.21233 0.13574,1.75378 0.0452,0.54144 0.0905,1.03406 0.13573,1.46457 0.0452,0.43052 0.0905,0.79852 0.13573,1.09425 0.0452,0.29573 0.0905,0.51873 0.13573,0.66329 0.0452,0.14456 0.0905,0.21021 0.13574,0.1956 0.0452,-0.0146 0.0905,-0.10996 0.13573,-0.28294 0.0452,-0.17298 0.0905,-0.42403 0.13573,-0.74579 0.0452,-0.32176 0.0905,-0.71462 0.13574,-1.16733 0.0452,-0.45272 0.0905,-0.96562 0.13573,-1.52421 0.0452,-0.5586 0.0905,-1.16312 0.13573,-1.79665 0.0452,-0.63353 0.0905,-1.29618 0.13573,-1.96955 0.0452,-0.67337 0.0905,-1.35744 0.13574,-2.03334 0.0452,-0.67591 0.0905,-1.34351 0.13573,-1.98451 0.0452,-0.64099 0.0905,-1.25514 0.13573,-1.82571 0.0452,-0.57058 0.0905,-1.09725 0.13574,-1.5658 0.0452,-0.46854 0.0905,-0.87856 0.13573,-1.21912 0.0452,-0.34056 0.0905,-0.61122 0.13573,-0.80493 0.0452,-0.19371 0.0905,-0.31 0.13573,-0.34613 0.0452,-0.0361 0.0905,0.008 0.13574,0.13184 0.0452,0.12346 0.0905,0.32631 0.13573,0.60251 0.0452,0.2762 0.0905,0.62615 0.13573,1.03979 0.0452,0.41365 0.0905,0.89131 0.13573,1.41948 0.0452,0.52817 0.0905,1.10709 0.13574,1.72053 0.0452,0.61344 0.0905,1.26154 0.13573,1.92627 0.0452,0.66472 0.0905,1.3461 0.13573,2.02528 0.0452,0.67919 0.0905,1.3561 0.13574,2.01212 0.0452,0.65602 0.0905,1.29096 0.13573,1.88748 0.0452,0.59651 0.0905,1.15431 0.13573,1.65827 0.0452,0.50397 0.0905,0.95372 0.13573,1.33721 0.0452,0.3835 0.0905,0.70029 0.13574,0.94207 0.0452,0.24177 0.0905,0.40806 0.13573,0.49473 0.0452,0.0867 0.0905,0.0932 0.13573,0.02 0.0452,-0.0732 0.0905,-0.22677 0.13574,-0.45586 0.0452,-0.2291 0.0905,-0.5342 0.13573,-0.90645 0.0452,-0.37226 0.0905,-0.81204 0.13573,-1.30684 0.0452,-0.49479 0.0905,-1.04489 0.13573,-1.63481 0.0452,-0.58993 0.0905,-1.21986 0.13574,-1.87223 0.0452,-0.65238 0.0905,-1.32726 0.13573,-2.00594 0.0452,-0.67868 0.0905,-1.36111 0.13573,-2.0285 0.0452,-0.6674 0.0905,-1.31958 0.13574,-1.93871 0.0452,-0.61913 0.0905,-1.20494 0.13573,-1.74151 0.0452,-0.53657 0.0905,-1.02355 0.13573,-1.44783 0.0453,-0.42428 0.0905,-0.78546 0.13573,-1.07395 0.0452,-0.28849 0.0905,-0.50385 0.13574,-0.64057 0.0452,-0.13672 0.0905,-0.19433 0.13573,-0.17171 0.0452,0.0226 0.0905,0.12595 0.13573,0.30667 0.0452,0.18072 0.0905,0.43926 0.13574,0.76805 0.0452,0.3288 0.0905,0.72824 0.13573,1.1869 0.0452,0.45866 0.0905,0.97686 0.13573,1.53998 0.0453,0.56312 0.0905,1.17138 0.13573,1.80776 0.0452,0.63638 0.0905,1.30099 0.13574,1.97538 0.0452,0.67439 0.0905,1.35855 0.13573,2.03359 0.0452,0.67503 0.0905,1.34083 0.13573,1.97912 0.0453,0.63829 0.0905,1.24884 0.13574,1.81503 0.0452,0.56618 0.0905,1.08766 0.13573,1.55037 0.0452,0.46271 0.0905,0.86624 0.13573,1.19985 0.0453,0.3336 0.0905,0.59682 0.13573,0.78284 0.0452,0.18601 0.0905,0.29434 0.13574,0.32246 0.0452,0.0281 0.0905,-0.0244 0.13573,-0.15576 0.0452,-0.13133 0.0905,-0.34188 0.13573,-0.62538 0.0453,-0.2835 0.0905,-0.64036 0.13574,-1.06033 0.0452,-0.41998 0.0905,-0.90339 0.13573,-1.43656 0.0452,-0.53318 0.0905,-1.11636 0.13573,-1.7332 0.0452,-0.61684 0.0905,-1.26748 0.13573,-1.93382 0.0453,-0.66634 0.0905,-1.34839 0.13574,-2.02731 0.0452,-0.67892 0.0905,-1.35461 0.13573,-2.0085 0.0452,-0.65389 0.0905,-1.28578 0.13573,-1.87842 0.0453,-0.59263 0.0905,-1.14572 0.13574,-1.64427 0.0452,-0.49856 0.0905,-0.9422 0.13573,-1.31905 0.0452,-0.37685 0.0905,-0.68647 0.13573,-0.92074 0.0452,-0.23427 0.0905,-0.39272 0.13573,-0.47143 0.0453,-0.0787 0.0905,-0.0772 0.13574,0.004 0.0452,0.0812 0.0905,0.24258 0.13573,0.47921 0.0452,0.23662 0.0905,0.54892 0.13573,0.92786 0.0452,0.37894 0.0905,0.82486 0.13574,1.32512 0.0452,0.50025 0.0905,1.05511 0.13573,1.64897 0.0452,0.59386 0.0905,1.22689 0.13573,1.88146 0.0452,0.65457 0.0905,1.33073 0.13573,2.00974 0.0453,0.67901 0.0905,1.36083 0.13574,2.02667 0.0452,0.66584 0.0905,1.31555 0.13573,1.93133 0.0452,0.61579 0.0905,1.19739 0.13573,1.729 0.0452,0.53162 0.0905,1.01289 0.13574,1.43089 0.0452,0.41799 0.0905,0.77229 0.13573,1.0535 0.0452,0.28122 0.0905,0.4889 0.13573,0.61776 0.0452,0.12887 0.0905,0.17843 0.13573,0.1478 0.0452,-0.0306 0.0905,-0.14193 0.13574,-0.33036 0.0452,-0.18843 0.0905,-0.45443 0.13573,-0.79022 0.0452,-0.33578 0.0905,-0.74174 0.13573,-1.20628 0.0452,-0.46455 0.0905,-0.98798 0.13574,-1.55555 0.0452,-0.56756 0.0905,-1.17947 0.13573,-1.81861 0.0452,-0.63915 0.0905,-1.30563 0.13573,-1.98095 0.0452,-0.67532 0.0905,-1.35946 0.13573,-2.03354 0.0452,-0.67408 0.0905,-1.33797 0.13574,-1.97347 0.0452,-0.6355 0.0905,-1.24237 0.13573,-1.80408 0.0452,-0.56171 0.0905,-1.07794 0.13573,-1.53475 0.0453,-0.4568 0.0905,-0.85379 0.13574,-1.18039 0.0452,-0.32659 0.0905,-0.58235 0.13573,-0.76064 0.0452,-0.1783 0.0905,-0.27865 0.13573,-0.29877 0.0453,-0.0201 0.0905,0.0405 0.13573,0.17968 0.0453,0.13918 0.0905,0.35739 0.13574,0.64815 0.0452,0.29077 0.0905,0.65449 0.13573,1.08073 0.0452,0.42625 0.0905,0.91533 0.13573,1.45344 0.0453,0.53811 0.0905,1.12546 0.13574,1.74562 0.0452,0.62016 0.0905,1.27325 0.13573,1.94111 0.0452,0.66786 0.0905,1.3505 0.13573,2.02906 0.0453,0.67856 0.0905,1.35293 0.13573,2.0046 0.0453,0.65167 0.0905,1.28042 0.13574,1.8691 0.0452,0.58867 0.0905,1.13697 0.13573,1.63004 0.0452,0.49308 0.0905,0.93054 0.13573,1.3007 0.0452,0.37015 0.0905,0.67256 0.13573,0.89929 0.0453,0.22673 0.0905,0.37731 0.13574,0.44806 0.0452,0.0707 0.0905,0.0612 0.13573,-0.028 0.0452,-0.0892 0.0905,-0.25836 0.13573,-0.50248 0.0453,-0.24412 0.0905,-0.56358 0.13574,-0.94914 0.0452,-0.38557 0.0905,-0.83758 0.13573,-1.34323 0.0452,-0.50564 0.0905,-1.06518 0.13573,-1.66289 0.0452,-0.59771 0.0905,-1.23377 0.13573,-1.89044 0.0453,-0.65667 0.0905,-1.33401 0.13574,-2.01326 0.0452,-0.67925 0.0905,-1.36035 0.13573,-2.02455 0.0452,-0.6642 0.0905,-1.31133 0.13573,-1.92369 0.0453,-0.61235 0.0905,-1.18966 0.13574,-1.71625 0.0452,-0.52659 0.0905,-1.00209 0.13573,-1.41374 0.0452,-0.41165 0.0905,-0.75901 0.13573,-1.03291 0.0452,-0.27391 0.0905,-0.47388 0.13573,-0.59487 0.0453,-0.12098 0.0905,-0.16249 0.13574,-0.12386 0.0452,0.0386 0.0905,0.15789 0.13573,0.35401 0.0452,0.19611 0.0905,0.46952 0.13573,0.81226 0.0453,0.34273 0.0905,0.75515 0.13574,1.22551 0.0452,0.47036 0.0905,0.99895 0.13573,1.57089 0.0452,0.57193 0.0905,1.1874 0.13573,1.82922 0.0452,0.64182 0.0905,1.31008 0.13573,1.98623 0.0452,0.67616 0.0905,1.36018 0.13574,2.03321 0.0452,0.67303 0.0905,1.33493 0.13573,1.96754 0.0452,0.63262 0.0905,1.23573 0.13573,1.79289 0.0453,0.55716 0.0905,1.06806 0.13574,1.5189 0.0452,0.45085 0.0905,0.84123 0.13572,1.16078 0.0452,0.31955 0.0905,0.5678 0.13574,0.73835 0.0452,0.17055 0.0905,0.26291 0.13573,0.27501 0.0452,0.0121 0.0905,-0.0565 0.13574,-0.20355 0.0452,-0.14702 0.0905,-0.37286 0.13573,-0.67085 0.0452,-0.29799 0.0905,-0.66852 0.13573,-1.10097 0.0453,-0.43246 0.0905,-0.92715 0.13574,-1.47012 0.0452,-0.54296 0.0905,-1.13441 0.13573,-1.7578 0.0452,-0.62339 0.0905,-1.27884 0.13573,-1.94813 0.0452,-0.66928 0.0905,-1.35241 0.13573,-2.03052 0.0452,-0.6781 0.0905,-1.35107 0.13574,-2.00042 0.0452,-0.64936 0.0905,-1.27489 0.13573,-1.85952 0.0452,-0.58463 0.0905,-1.12806 0.13573,-1.61559 0.0453,-0.48752 0.0905,-0.91876 0.13573,-1.28216 0.0452,-0.36341 0.0905,-0.65856 0.13574,-0.87772 0.0452,-0.21916 0.0905,-0.36186 0.13573,-0.42463 0.0452,-0.0628 0.0905,-0.0451 0.13573,0.052 0.0452,0.0971 0.0905,0.27411 0.13574,0.52569 0.0452,0.25158 0.0905,0.57816 0.13573,0.97029 0.0452,0.39214 0.0905,0.85018 0.13573,1.36114 0.0453,0.51096 0.0905,1.0751 0.13574,1.67658 0.0452,0.60149 0.0905,1.24047 0.13573,1.89915 0.0452,0.65868 0.0905,1.33711 0.13573,2.01651 0.0453,0.67939 0.0905,1.35968 0.13573,2.02215 0.0452,0.66246 0.0905,1.30693 0.13574,1.91577 0.0452,0.60884 0.0905,1.18178 0.13573,1.70327 0.0452,0.52148 0.0905,0.99115 0.13573,1.3964 0.0453,0.40524 0.0905,0.74563 0.13574,1.01218 0.0452,0.26655 0.0905,0.45879 0.13573,0.57188 0.0452,0.11309 0.0905,0.14654 0.13573,0.0999 0.0453,-0.0466 0.0905,-0.17383 0.13573,-0.3776 0.0452,-0.20378 0.0905,-0.48457 0.13574,-0.8342 0.0452,-0.34962 0.0905,-0.76846 0.13573,-1.24457 0.0452,-0.47611 0.0905,-1.00979 0.13573,-1.58601 0.0453,-0.57621 0.0905,-1.19517 0.13574,-1.83957 0.0452,-0.64441 0.0905,-1.31435 0.13573,-1.99125 0.0452,-0.67689 0.0905,-1.36071 0.13573,-2.03259 0.0453,-0.67188 0.0905,-1.33169 0.13573,-1.96134 0.0452,-0.62965 0.0905,-1.2289 0.13574,-1.78144 0.0452,-0.55254 0.0905,-1.05803 0.13573,-1.50285 0.0452,-0.44482 0.0905,-0.82855 0.13573,-1.141 0.0453,-0.31245 0.0905,-0.55317 0.13573,-0.71595 0.0452,-0.16277 0.0905,-0.24714 0.13574,-0.25122 0.0452,-0.004 0.0905,0.0726 0.13573,0.2274 0.0453,0.15483 0.0905,0.38828 0.13573,0.69345 0.0453,0.30517 0.0905,0.68246 0.13574,1.12106 0.0452,0.43861 0.0905,0.93885 0.13573,1.48659 0.0452,0.54774 0.0905,1.14321 0.13572,1.76974 0.0453,0.62654 0.0905,1.28425 0.13575,1.95487 0.0452,0.67062 0.0905,1.35415 0.13573,2.0317 0.0452,0.67755 0.0905,1.34902 0.13573,1.99597 0.0453,0.64695 0.0905,1.26917 0.13573,1.84968 0.0453,0.58051 0.0905,1.119 0.13574,1.60091 0.0452,0.48191 0.0905,0.90685 0.13573,1.26346 0.0452,0.35661 0.0905,0.64445 0.13573,0.85601 0.0452,0.21156 0.0905,0.34636 0.13574,0.40114 0.0452,0.0548 0.0905,0.0291 0.13573,-0.0759 0.0452,-0.10502 0.0905,-0.28981 0.13573,-0.54882 0.0453,-0.25901 0.0905,-0.59265 0.13573,-0.99131 0.0453,-0.39865 0.0905,-0.86265 0.13574,-1.37886 0.0452,-0.51621 0.0905,-1.08488 0.13573,-1.69004 0.0452,-0.60517 0.0905,-1.247 0.13573,-1.9076 0.0452,-0.6606 0.0905,-1.34002 0.13572,-2.01947"
       title="sin(x)"
       id="path1314" />
    <text
       id="text1321"
       y="90.541687"
       x="53.525105"
       style="font-style:normal;font-weight:normal;font-size:8.72694969px;line-height:1.25;font-family:sans-serif;letter-spacing:0px;word-spacing:0px;fill:#000000;fill-opacity:1;stroke:none;stroke-width:0.21817373"
       xml:space="preserve"><tspan
         style="stroke-width:0.21817373"
         y="90.541687"
         x="53.525105"
         id="tspan1319">0</tspan></text>
    <text
       id="text1321-6"
       y="90.541687"
       x="67.716469"
       style="font-style:normal;font-weight:normal;font-size:8.72694969px;line-height:1.25;font-family:sans-serif;letter-spacing:0px;word-spacing:0px;fill:#000000;fill-opacity:1;stroke:none;stroke-width:0.21817373"
       xml:space="preserve"><tspan
         style="stroke-width:0.21817373"
         y="90.541687"
         x="67.716469"
         id="tspan1319-7">0</tspan></text>
    <text
       id="text1321-5"
       y="90.541687"
       x="81.907837"
       style="font-style:normal;font-weight:normal;font-size:8.72694969px;line-height:1.25;font-family:sans-serif;letter-spacing:0px;word-spacing:0px;fill:#000000;fill-opacity:1;stroke:none;stroke-width:0.21817373"
       xml:space="preserve"><tspan
         style="stroke-width:0.21817373"
         y="90.541687"
         x="81.907837"
         id="tspan1319-3">0</tspan></text>
    <text
       id="text1321-56"
       y="90.541687"
       x="96.099197"
       style="font-style:normal;font-weight:normal;font-size:8.72694969px;line-height:1.25;font-family:sans-serif;letter-spacing:0px;word-spacing:0px;fill:#000000;fill-opacity:1;stroke:none;stroke-width:0.21817373"
       xml:space="preserve"><tspan
         style="stroke-width:0.21817373"
         y="90.541687"
         x="96.099197"
         id="tspan1319-2">0</tspan></text>
    <text
       id="text1321-9"
       y="90.541687"
       x="110.29056"
       style="font-style:normal;font-weight:normal;font-size:8.72694969px;line-height:1.25;font-family:sans-serif;letter-spacing:0px;word-spacing:0px;fill:#000000;fill-opacity:1;stroke:none;stroke-width:0.21817373"
       xml:space="preserve"><tspan
         style="stroke-width:0.21817373"
         y="90.541687"
         x="110.29056"
         id="tspan1319-1">0</tspan></text>
    <text
       id="text1321-2"
       y="90.541687"
       x="124.48193"
       style="font-style:normal;font-weight:normal;font-size:8.72694969px;line-height:1.25;font-family:sans-serif;letter-spacing:0px;word-spacing:0px;fill:#000000;fill-opacity:1;stroke:none;stroke-width:0.21817373"
       xml:space="preserve"><tspan
         style="stroke-width:0.21817373"
         y="90.541687"
         x="124.48193"
         id="tspan1319-70">0</tspan></text>
    <text
       id="text1321-93"
       y="90.541687"
       x="138.67329"
       style="font-style:normal;font-weight:normal;font-size:8.72694969px;line-height:1.25;font-family:sans-serif;letter-spacing:0px;word-spacing:0px;fill:#000000;fill-opacity:1;stroke:none;stroke-width:0.21817373"
       xml:space="preserve"><tspan
         style="stroke-width:0.21817373"
         y="90.541687"
         x="138.67329"
         id="tspan1319-6">0</tspan></text>
    <text
       id="text1321-93-0"
       y="90.545929"
       x="145.69016"
       style="font-style:normal;font-weight:normal;font-size:8.72694969px;line-height:1.25;font-family:sans-serif;letter-spacing:0px;word-spacing:0px;fill:#000000;fill-opacity:1;stroke:none;stroke-width:0.21817373"
       xml:space="preserve"><tspan
         style="stroke-width:0.21817373"
         y="90.545929"
         x="145.69016"
         id="tspan1319-6-6">1</tspan></text>
    <text
       id="text1321-93-2"
       y="90.541687"
       x="152.86467"
       style="font-style:normal;font-weight:normal;font-size:8.72694969px;line-height:1.25;font-family:sans-serif;letter-spacing:0px;word-spacing:0px;fill:#000000;fill-opacity:1;stroke:none;stroke-width:0.21817373"
       xml:space="preserve"><tspan
         style="stroke-width:0.21817373"
         y="90.541687"
         x="152.86467"
         id="tspan1319-6-61">0</tspan></text>
    <text
       id="text1321-93-0-8"
       y="90.545929"
       x="131.49878"
       style="font-style:normal;font-weight:normal;font-size:8.72694969px;line-height:1.25;font-family:sans-serif;letter-spacing:0px;word-spacing:0px;fill:#000000;fill-opacity:1;stroke:none;stroke-width:0.21817373"
       xml:space="preserve"><tspan
         style="stroke-width:0.21817373"
         y="90.545929"
         x="131.49878"
         id="tspan1319-6-6-7">1</tspan></text>
    <text
       id="text1321-93-0-9"
       y="90.545929"
       x="117.30742"
       style="font-style:normal;font-weight:normal;font-size:8.72694969px;line-height:1.25;font-family:sans-serif;letter-spacing:0px;word-spacing:0px;fill:#000000;fill-opacity:1;stroke:none;stroke-width:0.21817373"
       xml:space="preserve"><tspan
         style="stroke-width:0.21817373"
         y="90.545929"
         x="117.30742"
         id="tspan1319-6-6-2">1</tspan></text>
    <text
       id="text1321-93-0-0"
       y="90.545929"
       x="103.11606"
       style="font-style:normal;font-weight:normal;font-size:8.72694969px;line-height:1.25;font-family:sans-serif;letter-spacing:0px;word-spacing:0px;fill:#000000;fill-opacity:1;stroke:none;stroke-width:0.21817373"
       xml:space="preserve"><tspan
         style="stroke-width:0.21817373"
         y="90.545929"
         x="103.11606"
         id="tspan1319-6-6-23">1</tspan></text>
    <text
       id="text1321-93-0-7"
       y="90.545929"
       x="88.92469"
       style="font-style:normal;font-weight:normal;font-size:8.72694969px;line-height:1.25;font-family:sans-serif;letter-spacing:0px;word-spacing:0px;fill:#000000;fill-opacity:1;stroke:none;stroke-width:0.21817373"
       xml:space="preserve"><tspan
         style="stroke-width:0.21817373"
         y="90.545929"
         x="88.92469"
         id="tspan1319-6-6-5">1</tspan></text>
    <text
       id="text1321-93-0-92"
       y="90.545929"
       x="74.733322"
       style="font-style:normal;font-weight:normal;font-size:8.72694969px;line-height:1.25;font-family:sans-serif;letter-spacing:0px;word-spacing:0px;fill:#000000;fill-opacity:1;stroke:none;stroke-width:0.21817373"
       xml:space="preserve"><tspan
         style="stroke-width:0.21817373"
         y="90.545929"
         x="74.733322"
         id="tspan1319-6-6-28">1</tspan></text>
    <text
       id="text1321-93-0-97"
       y="90.545929"
       x="60.541954"
       style="font-style:normal;font-weight:normal;font-size:8.72694969px;line-height:1.25;font-family:sans-serif;letter-spacing:0px;word-spacing:0px;fill:#000000;fill-opacity:1;stroke:none;stroke-width:0.21817373"
       xml:space="preserve"><tspan
         style="stroke-width:0.21817373"
         y="90.545929"
         x="60.541954"
         id="tspan1319-6-6-3">1</tspan></text>
  </g>
</svg>
